
<svg width="670px" height="513px" viewBox="0 0 670 513" version="1.1" xmlns="http://www.w3.org/2000/svg" xmlns:xlink="http://www.w3.org/1999/xlink">
    <!-- Generator: Sketch 49 (51002) - http://www.bohemiancoding.com/sketch -->
    <desc>Created with Sketch.</desc>
    <defs></defs>
    <g id="Page-1" stroke="none" stroke-width="1" fill="none" fill-rule="evenodd">
        <g id="logo" transform="translate(183.309438, 122.752143)">
            <polygon id="Path" fill="#7DCE23" transform="translate(38.823178, 183.928293) rotate(30.000000) translate(-38.823178, -183.928293) " points="15.609319 170.646661 38.7620102 157.138737 62.037037 170.646661 62.037037 197.227613 38.823178 210.717849 15.609319 197.227613"></polygon>
            <polygon id="Path" fill="#4AB5A0" transform="translate(43.826165, 124.151598) rotate(30.000000) translate(-43.826165, -124.151598) " points="13.6081243 106.806183 43.7465413 89.1652377 74.0442055 106.806183 74.0442055 141.520113 43.8261649 159.137958 13.6081243 141.520113"></polygon>
            <polygon id="Path" fill="#348BA0" transform="translate(103.661888, 94.163289) rotate(30.000000) translate(-103.661888, -94.163289) " points="74.0442055 77.2143411 103.583846 59.9766173 133.27957 77.2143411 133.27957 111.134809 103.661888 128.349961 74.0442055 111.134809"></polygon>
            <polygon id="Path" fill="#2CB1E4" transform="translate(219.731183, 158.938036) rotate(30.000000) translate(-219.731183, -158.938036) " points="193.315412 143.773188 219.661578 128.349961 246.146953 143.773188 246.146953 174.12308 219.731183 189.526111 193.315412 174.12308"></polygon>
            <polygon id="Path" fill="#71CFF4" transform="translate(224.734170, 93.163679) rotate(30.000000) translate(-224.734170, -93.163679) " points="192.915173 74.9262143 224.650328 56.3780203 256.553166 74.9262143 256.553166 111.425432 224.73417 129.949337 192.915173 111.425432"></polygon>
            <polygon id="Path" fill="#2494D0" transform="translate(126.275388, 225.312159) rotate(30.000000) translate(-126.275388, -225.312159) " points="111.666667 216.887243 126.236895 208.318784 140.88411 216.887243 140.88411 233.748295 126.275388 242.305534 111.666667 233.748295"></polygon>
            <polygon id="Path" fill="#2494D0" transform="translate(101.060335, 251.302027) rotate(30.000000) translate(-101.060335, -251.302027) " points="86.4516129 242.877111 101.021841 234.308652 115.669056 242.877111 115.669056 259.738162 101.060335 268.295401 86.4516129 259.738162"></polygon>
            <polygon id="Path" fill="#2CB1E4" transform="translate(271.762246, 134.147701) rotate(30.000000) translate(-271.762246, -134.147701) " points="247.840785 119.426133 271.697914 105.958691 296.176822 120.172252 296.176822 148.141761 271.762246 162.336711 247.34767 148.141761"></polygon>
            <polygon id="Path" fill="#71CFF4" transform="translate(162.697133, 53.579111) rotate(30.000000) translate(-162.697133, -53.579111) " points="127.275986 33.1610804 162.603799 12.3951676 198.11828 33.1610804 198.11828 74.0243346 162.697133 94.7630553 127.275986 74.0243346"></polygon>
            <polygon id="Path" fill="#2494D0" transform="translate(166.099164, 193.124708) rotate(30.000000) translate(-166.099164, -193.124708) " points="136.481481 176.076643 166.021122 158.738114 195.716846 176.076643 195.716846 210.195477 166.099164 227.511302 136.481481 210.195477"></polygon>
            <polygon id="Path" fill="#E1E1E1" transform="translate(163.724541, 127.050468) rotate(30.000000) translate(-163.724541, -127.050468) " points="132.505903 108.516919 163.842928 91.0644973 194.943179 109.20947 194.943179 144.915226 163.92466 163.036438 132.906142 144.915226"></polygon>
            <polygon id="Path" fill="#4EB74F" transform="translate(101.860812, 164.735776) rotate(30.000000) translate(-101.860812, -164.735776) " points="67.2401434 144.912444 101.769588 124.751364 136.481481 144.912444 136.481481 184.585507 101.860812 204.720187 67.2401434 184.585507"></polygon>
        </g>
        <g id="name" transform="translate(62.037037, 0.000000)">
            <path d="M11.1265646,0.329168544 L11.1265646,40.7431001 C15.523743,36.1875617 20.5071371,33.9098267 26.0768964,33.9098267 C32.4935197,33.9098267 37.8351971,36.3014485 42.1020887,41.0847638 C46.3689803,45.8355396 48.5023942,51.7576507 48.5023942,58.8512748 C48.5023942,66.1726758 46.3526947,72.2249432 42.0532314,77.0082585 C37.7863398,81.7590343 32.3958056,84.1343866 25.8814672,84.1343866 C20.3768513,84.1343866 15.4585996,82.0193469 11.1265646,77.7892041 L11.1265646,82.7677319 L0.133673555,82.7677319 L0.133673555,0.329168544 L11.1265646,0.329168544 Z" id="Path" fill="#348BA0"></path>
            <path d="M37.2652166,59.3393657 C37.2652166,54.7838273 36.0275109,51.0743731 33.5520623,48.2108918 C31.0440421,45.2823314 27.9009209,43.8180732 24.1226047,43.8180732 C20.0837149,43.8180732 16.7940234,45.2335228 14.2534314,48.0644645 C11.7454111,50.8628667 10.4914198,54.5072428 10.4914198,58.9977021 C10.4914198,63.6183196 11.7291255,67.3115043 14.2045741,70.0773669 C16.6800227,72.9083086 19.937143,74.3237583 23.9760328,74.3237583 C27.7869207,74.3237583 30.9463275,72.9083086 33.4543477,70.0773669 C35.9949397,67.2138856 37.2652166,63.6345877 37.2652166,59.3393657 Z" id="Path" fill="#FFFFFF"></path>
            <path d="M64.2995859,35.2276723 L75.2924769,35.2276723 L75.2924769,39.4740636 C77.3119218,37.3589922 79.103338,35.9110035 80.6667792,35.1300541 C82.2627921,34.3165651 84.1519219,33.9098267 86.3342252,33.9098267 C89.2331058,33.9098267 92.2622277,34.8534598 95.4216818,36.7407542 L90.3893806,46.795428 C88.3047923,45.2986083 86.2690921,44.5502096 84.2822189,44.5502096 C78.2890276,44.5502096 75.2924769,49.0731406 75.2924769,58.1191383 L75.2924769,82.7677319 L64.2995859,82.7677319 L64.2995859,35.2276723 Z" id="Path" fill="#71CFF4"></path>
            <path d="M139.738866,35.2276723 L150.780615,35.2276723 L150.780615,82.7677319 L139.738866,82.7677319 L139.738866,77.7892041 C135.211401,82.0193469 130.342006,84.1343866 125.130536,84.1343866 C118.551054,84.1343866 113.111663,81.7590343 108.8122,77.0082585 C104.545308,72.1598641 102.411894,66.1075967 102.411894,58.8512748 C102.411894,51.7251111 104.545308,45.7867305 108.8122,41.0359547 C113.079091,36.2851789 118.420769,33.9098267 124.837392,33.9098267 C130.374579,33.9098267 135.341688,36.1875617 139.738866,40.7431001 L139.738866,35.2276723 Z" id="Path" fill="#71CFF4"></path>
            <path d="M113.649072,58.8512748 C113.649072,63.4068132 114.870492,67.1162674 117.313369,69.9797487 C119.821389,72.8757695 122.980796,74.3237583 126.791684,74.3237583 C130.863145,74.3237583 134.152837,72.9245782 136.660857,70.126176 C139.168877,67.2301551 140.422868,63.55324 140.422868,59.0953203 C140.422868,54.6374005 139.168877,50.9604854 136.660857,48.0644645 C134.152837,45.2335228 130.895716,43.8180732 126.889398,43.8180732 C123.111082,43.8180732 119.951675,45.2497923 117.411083,48.1132736 C114.903063,51.0092945 113.649072,54.5885924 113.649072,58.8512748 Z" id="Path" fill="#FFFFFF"></path>
            <polygon id="Path" fill="#71CFF4" points="179.268036 35.2276723 179.268036 82.7677319 168.275145 82.7677319 168.275145 35.2276723"></polygon>
            <path d="M166.613997,15.4599883 C166.613997,13.5401543 167.314278,11.8806616 168.714861,10.4814605 C170.115443,9.08225945 171.79286,8.3826694 173.747162,8.3826694 C175.734035,8.3826694 177.427738,9.08225945 178.82832,10.4814605 C180.228903,11.8481221 180.929184,13.5238843 180.929184,15.5087974 C180.929184,17.4937106 180.228903,19.1857423 178.82832,20.5849434 C177.460309,21.9841445 175.782892,22.6837346 173.796019,22.6837346 C171.809146,22.6837346 170.115443,21.9841445 168.714861,20.5849434 C167.314278,19.1857423 166.613997,17.4774411 166.613997,15.4599883 Z" id="Path" fill="#71CFF4"></path>
            <path d="M196.811424,35.2276723 L207.853172,35.2276723 L207.853172,39.6204909 C211.696632,35.8133624 216.028602,33.9098267 220.849212,33.9098267 C226.3864,33.9098267 230.702084,35.650667 233.796395,39.1324 C236.467274,42.0934999 237.802693,46.9255521 237.802693,53.6287015 L237.802693,82.7677319 L226.760945,82.7677319 L226.760945,56.2155836 C226.760945,51.5298869 226.109521,48.2922493 224.806653,46.5025735 C223.536357,44.6803581 221.223801,43.7692641 217.868917,43.7692641 C214.220888,43.7692641 211.631477,44.9732097 210.100608,47.3811372 C208.60231,49.7565251 207.853172,53.9052568 207.853172,59.8274567 L207.853172,82.7677319 L196.811424,82.7677319 L196.811424,35.2276723 Z" id="Path" fill="#348BA0"></path>
            <path d="M266.290114,0.329168544 L266.290114,40.7431001 C270.687293,36.1875617 275.670687,33.9098267 281.240446,33.9098267 C287.657069,33.9098267 292.998747,36.3014485 297.265638,41.0847638 C301.53253,45.8355396 303.665944,51.7576507 303.665944,58.8512748 C303.665944,66.1726758 301.516244,72.2249432 297.216781,77.0082585 C292.94989,81.7590343 287.559355,84.1343866 281.045017,84.1343866 C275.540401,84.1343866 270.622149,82.0193469 266.290114,77.7892041 L266.290114,82.7677319 L255.297223,82.7677319 L255.297223,0.329168544 L266.290114,0.329168544 Z" id="Path" fill="#348BA0"></path>
            <path d="M292.428766,59.3393657 C292.428766,54.7838273 291.191061,51.0743731 288.715612,48.2108918 C286.207592,45.2823314 283.064471,43.8180732 279.286154,43.8180732 C275.247265,43.8180732 271.957573,45.2335228 269.416981,48.0644645 C266.908961,50.8628667 265.65497,54.5072428 265.65497,58.9977021 C265.65497,63.6183196 266.892675,67.3115043 269.368124,70.0773669 C271.843572,72.9083086 275.100693,74.3237583 279.139583,74.3237583 C282.95047,74.3237583 286.109877,72.9083086 288.617897,70.0773669 C291.158489,67.2138856 292.428766,63.6345877 292.428766,59.3393657 Z" id="Path" fill="#FFFFFF"></path>
            <polygon id="Path" fill="#348BA0" points="329.90593 0.329168544 329.90593 82.7677319 318.913039 82.7677319 318.913039 0.329168544"></polygon>
            <path d="M345.201882,58.6560384 C345.201882,51.7901912 347.661008,45.9494278 352.579333,41.1335729 C357.497659,36.317718 363.49076,33.9098267 370.558817,33.9098267 C377.659446,33.9098267 383.685119,36.3339875 388.636016,41.182382 C393.52177,46.0307764 395.96461,51.9854266 395.96461,59.0465112 C395.96461,66.1726748 393.505484,72.1435945 388.587159,76.9594494 C383.636261,81.7427648 377.561732,84.1343866 370.363388,84.1343866 C363.230188,84.1343866 357.253372,81.6939562 352.432761,76.8130222 C347.612151,71.9971673 345.201882,65.9448999 345.201882,58.6560384 Z" id="Path" fill="#348BA0"></path>
            <path d="M356.439059,58.8512748 C356.439059,63.6020506 357.709336,67.3603134 360.249928,70.126176 C362.855664,72.9245782 366.291926,74.3237583 370.558817,74.3237583 C374.858281,74.3237583 378.294543,72.9408477 380.867706,70.1749851 C383.44087,67.4091225 384.727432,63.7159378 384.727432,59.0953203 C384.727432,54.4747027 383.44087,50.7815181 380.867706,48.0156554 C378.261971,45.2172533 374.825709,43.8180732 370.558817,43.8180732 C366.357069,43.8180732 362.953378,45.2172533 360.347643,48.0156554 C357.741908,50.8140576 356.439059,54.4258946 356.439059,58.8512748 Z" id="Path" fill="#FFFFFF"></path>
            <path d="M448.245533,37.2776543 L448.245533,51.871574 C445.737513,48.8128554 443.4901,46.7140852 441.503227,45.5752006 C439.548925,44.4037765 437.252655,43.8180732 434.614348,43.8180732 C430.477743,43.8180732 427.041482,45.2660619 424.305459,48.1620827 C421.569437,51.0581036 420.201447,54.6862101 420.201447,59.0465112 C420.201447,63.5044309 421.52058,67.1650765 424.158888,70.0285578 C426.829766,72.8920391 430.233457,74.3237583 434.370062,74.3237583 C437.008369,74.3237583 439.33721,73.7543245 441.356655,72.6154399 C443.310956,71.5090948 445.607226,69.3615161 448.245533,66.1726392 L448.245533,80.6689407 C443.783211,82.9792495 439.320957,84.1343866 434.858635,84.1343866 C427.497432,84.1343866 421.341475,81.7590343 416.390578,77.0082585 C411.439681,72.2249432 408.964269,66.2865626 408.964269,59.1929385 C408.964269,52.0993144 411.472252,46.1121251 416.488292,41.2311911 C421.504333,36.3502571 427.66029,33.9098267 434.956349,33.9098267 C439.646673,33.9098267 444.076357,35.0324247 448.245533,37.2776543 Z" id="Path" fill="#348BA0"></path>
            <polygon id="Path" fill="#348BA0" points="476.09781 0.329168544 476.09781 50.6025375 491.585572 35.2276723 506.340475 35.2276723 485.673839 55.1905926 507.855051 82.7677319 493.588721 82.7677319 477.856672 62.7071934 476.09781 64.4643208 476.09781 82.7677319 465.104919 82.7677319 465.104919 0.329168544"></polygon>
            <path d="M546.211645,43.3299822 L537.124189,48.1620827 C535.691034,45.2335223 533.915904,43.7692641 531.798744,43.7692641 C530.789021,43.7692641 529.925884,44.1027896 529.209307,44.7698506 C528.49273,45.4369115 528.134447,46.2910622 528.134447,47.3323281 C528.134447,49.1545435 530.251575,50.960462 534.485895,52.7501378 C540.316228,55.2556839 544.241058,57.565958 546.260503,59.6810294 C548.279947,61.7961008 549.289655,64.6432696 549.289655,68.2226212 C549.289655,72.8106992 547.595952,76.6503097 544.208496,79.7415679 C540.918755,82.6701283 536.945069,84.1343866 532.287317,84.1343866 C524.307252,84.1343866 518.656148,80.2459675 515.333836,72.4690126 L524.714436,68.125003 C526.017304,70.4027723 527.010726,71.850761 527.694731,72.4690126 C529.03017,73.7055159 530.626159,74.3237583 532.482746,74.3237583 C536.195919,74.3237583 538.052477,72.6317265 538.052477,69.2476123 C538.052477,67.2952386 536.619344,65.4730506 533.753035,63.7809935 C532.645598,63.227821 531.538177,62.6909263 530.430739,62.1702933 C529.323302,61.6496604 528.199595,61.1127657 527.059586,60.5595931 C523.86756,58.9976943 521.620147,57.4358188 520.31728,55.8739199 C518.656123,53.8890068 517.825558,51.3346896 517.825558,48.2108918 C517.825558,44.0783677 519.242405,40.6617651 522.076142,37.9609816 C524.975023,35.2601982 528.492713,33.9098267 532.629318,33.9098267 C538.720224,33.9098267 543.247621,37.0498471 546.211645,43.3299822 Z" id="Path" fill="#348BA0"></path>
        </g>
        <g id="tagline" transform="translate(0.000000, 449.424786)">
            <path d="M26.5564796,36.1796449 L6.91350246,36.1796449 C7.08235411,38.4287793 7.81403363,40.2186885 9.10856295,41.5494264 C10.4030923,42.8614215 12.0634419,43.5174091 14.0896617,43.5174091 C15.6656105,43.5174091 16.9695009,43.142559 18.0013721,42.3928476 C19.014482,41.6431361 20.1682843,40.2561907 21.4628136,38.2319697 L26.8097558,41.2120579 C25.9842589,42.6177669 25.1118718,43.8219729 24.1925683,44.824712 C23.2732649,45.8274511 22.2883117,46.6521213 21.2376792,47.2987474 C20.1870467,47.9453736 19.0520054,48.4186218 17.8325213,48.7185064 C16.6130371,49.018391 15.2903857,49.1683311 13.8645273,49.1683311 C9.77456512,49.1683311 6.49138783,47.8563557 4.01489695,45.2323655 C1.53840608,42.5896326 0.300179211,39.0847841 0.300179211,34.7177148 C0.300179211,30.3881311 1.50088405,26.8832826 3.90232975,24.2030641 C6.32253674,21.5603312 9.53066998,20.2389846 13.5268257,20.2389846 C17.560504,20.2389846 20.7498763,21.5228462 23.0950381,24.090608 C25.4214386,26.6396269 26.5846214,30.1725892 26.5846214,34.6896008 L26.5564796,36.1796449 Z" id="Path" fill="#348BA0"></path>
            <path d="M20.0557236,31.0066616 C19.1739427,27.63296 17.0445677,25.9461345 13.6675347,25.9461345 C12.8983216,25.9461345 12.1760226,26.0632752 11.500616,26.29756 C10.8252094,26.5318449 10.2107863,26.86921 9.65732807,27.3096655 C9.10386988,27.7501209 8.6301543,28.2795967 8.23616711,28.8981087 C7.84217993,29.5166206 7.54200372,30.2194646 7.33562948,31.0066616 L20.0557236,31.0066616 Z" id="Path" fill="#FFFFFF"></path>
            <path d="M56.6869678,20.9980636 L63.0470148,20.9980636 L63.0470148,48.381138 L56.6869678,48.381138 L56.6869678,45.5135059 C54.0791478,47.9500682 51.2743764,49.1683311 48.2725693,49.1683311 C44.4827878,49.1683311 41.3496986,47.8001282 38.8732077,45.0636813 C36.4154781,42.2710061 35.1866318,38.7849001 35.1866318,34.6052587 C35.1866318,30.5005884 36.4154781,27.0800812 38.8732077,24.3436343 C41.3309373,21.6071875 44.4077434,20.2389846 48.1037184,20.2389846 C51.2931385,20.2389846 54.154193,21.5509599 56.6869678,24.1749501 L56.6869678,20.9980636 Z" id="Path" fill="#348BA0"></path>
            <path d="M41.659246,34.6052587 C41.659246,37.2292488 42.362784,39.3658944 43.7698811,41.0152596 C45.2145008,42.6833677 47.034319,43.5174091 49.2293905,43.5174091 C51.5745523,43.5174091 53.4694146,42.7114814 54.9140343,41.0996018 C56.358654,39.4314938 57.080953,37.3135906 57.080953,34.7458289 C57.080953,32.1780671 56.358654,30.060164 54.9140343,28.392056 C53.4694146,26.7614335 51.5933133,25.9461345 49.2856741,25.9461345 C47.1093639,25.9461345 45.2895457,26.7708048 43.8261647,28.42017 C42.381545,30.088278 41.659246,32.1499536 41.659246,34.6052587 Z" id="Path" fill="#FFFFFF"></path>
            <path d="M89.9693377,25.6649942 L84.7349627,28.4482841 C83.9094657,26.7614333 82.8869905,25.9180205 81.6675063,25.9180205 C81.0859062,25.9180205 80.5887394,26.1101312 80.1759909,26.4943583 C79.7632424,26.8785854 79.5568713,27.3705762 79.5568713,27.9703454 C79.5568713,29.0199414 80.7763371,30.0601505 83.2153054,31.0910038 C86.5735771,32.5341983 88.8342792,33.8649162 89.9974795,35.0831973 C91.1606797,36.3014785 91.7422711,37.9414477 91.7422711,40.0031542 C91.7422711,42.6458871 90.7666984,44.8575028 88.8155238,46.6380675 C86.9206331,48.3249183 84.6317895,49.1683311 81.9489243,49.1683311 C77.3524072,49.1683311 74.0973714,46.9286017 72.1837194,42.4490757 L77.5869452,39.9469261 C78.337397,41.2589212 78.9096079,42.0929627 79.303595,42.4490757 C80.0728081,43.1613015 80.9920978,43.5174091 82.0614916,43.5174091 C84.2002791,43.5174091 85.2696569,42.5427989 85.2696569,40.5935491 C85.2696569,39.4689819 84.4441723,38.4194016 82.7931784,37.4447766 C82.1552944,37.1261493 81.5174199,36.8168979 80.8795359,36.5170133 C80.2416519,36.2171288 79.5943969,35.9078774 78.9377516,35.58925 C77.0991448,34.6895963 75.8046349,33.789956 75.0541831,32.8903023 C74.0973571,31.7469923 73.6189512,30.2757056 73.6189512,28.4763981 C73.6189512,26.0960642 74.4350553,24.1281011 76.0672879,22.5724498 C77.7370431,21.0167985 79.7632326,20.2389846 82.145917,20.2389846 C85.654279,20.2389846 88.2620599,22.0476363 89.9693377,25.6649942 Z" id="Path" fill="#348BA0"></path>
            <polygon id="Path" fill="#348BA0" points="109.06824 43.2924968 96.7421309 20.9980636 104.087141 20.9980636 112.473398 36.7419257 120.296818 20.9980636 127.444836 20.9980636 105.606798 63.2815788 98.3743554 63.2815788"></polygon>
            <path d="M176.871219,22.1788533 L176.871219,30.584951 C175.426599,28.8231291 174.132089,27.6142375 172.98765,26.95824 C171.861973,26.2834996 170.539321,25.9461345 169.019656,25.9461345 C166.636972,25.9461345 164.657685,26.780176 163.081736,28.4482841 C161.505788,30.1163921 160.717825,32.2061814 160.717825,34.7177148 C160.717825,37.2854766 161.477646,39.3940085 162.997311,41.0433737 C164.535737,42.6927389 166.496263,43.5174091 168.878947,43.5174091 C170.398612,43.5174091 171.740025,43.1894153 172.903225,42.5334178 C174.028903,41.896163 175.351554,40.6591577 176.871219,38.8223646 L176.871219,47.1722343 C174.300921,48.5029721 171.730663,49.1683311 169.160365,49.1683311 C164.920313,49.1683311 161.374481,47.8001282 158.522765,45.0636813 C155.671048,42.3084917 154.245211,38.8879844 154.245211,34.8020569 C154.245211,30.7161295 155.689809,27.2675085 158.579048,24.4560905 C161.468287,21.6446725 165.014119,20.2389846 169.216649,20.2389846 C171.918275,20.2389846 174.469773,20.885601 176.871219,22.1788533 Z" id="Path" fill="#348BA0"></path>
            <path d="M187.499439,0.896525477 L193.831344,0.896525477 L193.831344,23.2753008 C196.082699,21.2510799 198.568534,20.2389846 201.288921,20.2389846 C204.384535,20.2389846 206.860989,21.2417086 208.718357,23.2471868 C210.294306,24.9902659 211.082268,27.773528 211.082268,31.5970565 L211.082268,48.381138 L204.750363,48.381138 L204.750363,32.1874513 C204.750363,29.9945453 204.361072,28.4061179 203.582478,27.4221216 C202.803884,26.4381253 201.551587,25.9461345 199.825548,25.9461345 C197.611715,25.9461345 196.054551,26.630236 195.154009,27.9984594 C194.272228,29.3854256 193.831344,31.7657238 193.831344,35.1394254 L193.831344,48.381138 L187.499439,48.381138 L187.499439,0.896525477 Z" id="Path" fill="#348BA0"></path>
            <path d="M247.066251,36.1796449 L227.423274,36.1796449 C227.592125,38.4287793 228.323805,40.2186885 229.618334,41.5494264 C230.912864,42.8614215 232.573213,43.5174091 234.599433,43.5174091 C236.175382,43.5174091 237.479272,43.142559 238.511143,42.3928476 C239.524253,41.6431361 240.678056,40.2561907 241.972585,38.2319697 L247.319527,41.2120579 C246.49403,42.6177669 245.621643,43.8219729 244.70234,44.824712 C243.783036,45.8274511 242.798083,46.6521213 241.747451,47.2987474 C240.696818,47.9453736 239.561777,48.4186218 238.342293,48.7185064 C237.122808,49.018391 235.800157,49.1683311 234.374299,49.1683311 C230.284336,49.1683311 227.001159,47.8563557 224.524668,45.2323655 C222.048177,42.5896326 220.809951,39.0847841 220.809951,34.7177148 C220.809951,30.3881311 222.010655,26.8832826 224.412101,24.2030641 C226.832308,21.5603312 230.040441,20.2389846 234.036597,20.2389846 C238.070275,20.2389846 241.259648,21.5228462 243.604809,24.090608 C245.93121,26.6396269 247.094393,30.1725892 247.094393,34.6896008 L247.066251,36.1796449 Z" id="Path" fill="#348BA0"></path>
            <path d="M240.565495,31.0066616 C239.683714,27.63296 237.554339,25.9461345 234.177306,25.9461345 C233.408093,25.9461345 232.685794,26.0632752 232.010387,26.29756 C231.334981,26.5318449 230.720558,26.86921 230.167099,27.3096655 C229.613641,27.7501209 229.139926,28.2795967 228.745938,28.8981087 C228.351951,29.5166206 228.051775,30.2194646 227.845401,31.0066616 L240.565495,31.0066616 Z" id="Path" fill="#FFFFFF"></path>
            <path d="M278.322411,22.1788533 L278.322411,30.584951 C276.877791,28.8231291 275.583282,27.6142375 274.438843,26.95824 C273.313165,26.2834996 271.990513,25.9461345 270.470849,25.9461345 C268.088164,25.9461345 266.108877,26.780176 264.532929,28.4482841 C262.95698,30.1163921 262.169017,32.2061814 262.169017,34.7177148 C262.169017,37.2854766 262.928838,39.3940085 264.448503,41.0433737 C265.986929,42.6927389 267.947455,43.5174091 270.33014,43.5174091 C271.849804,43.5174091 273.191217,43.1894153 274.354417,42.5334178 C275.480095,41.896163 276.802746,40.6591577 278.322411,38.8223646 L278.322411,47.1722343 C275.752114,48.5029721 273.181855,49.1683311 270.611558,49.1683311 C266.371505,49.1683311 262.825674,47.8001282 259.973957,45.0636813 C257.12224,42.3084917 255.696403,38.8879844 255.696403,34.8020569 C255.696403,30.7161295 257.141001,27.2675085 260.03024,24.4560905 C262.91948,21.6446725 266.465311,20.2389846 270.667841,20.2389846 C273.369468,20.2389846 275.920965,20.885601 278.322411,22.1788533 Z" id="Path" fill="#348BA0"></path>
            <polygon id="Path" fill="#348BA0" points="295.282536 0.896525477 295.282536 29.853986 304.203487 20.9980636 312.702311 20.9980636 300.798329 32.4967057 313.574707 48.381138 305.357301 48.381138 296.295641 36.8262678 295.282536 37.8383732 295.282536 48.381138 288.950631 48.381138 288.950631 0.896525477"></polygon>
            <path d="M318.208723,34.4928025 C318.208723,30.5380745 319.62518,27.1737948 322.458135,24.3998624 C325.291091,21.62593 328.743117,20.2389846 332.814318,20.2389846 C336.90428,20.2389846 340.375068,21.6353012 343.226785,24.4279764 C346.040979,27.2206516 347.448055,30.6505301 347.448055,34.7177148 C347.448055,38.8223851 346.031598,42.2616349 343.198643,45.0355673 C340.346926,47.7907569 336.847997,49.1683311 332.701751,49.1683311 C328.593028,49.1683311 325.150382,47.7626431 322.37371,44.9512252 C319.597038,42.1772927 318.208723,38.6911867 318.208723,34.4928025 Z" id="Path" fill="#348BA0"></path>
            <path d="M324.681338,34.6052587 C324.681338,37.3417055 325.413017,39.5064649 326.876398,41.0996018 C328.377302,42.7114814 330.356589,43.5174091 332.814318,43.5174091 C335.290809,43.5174091 337.270096,42.7208527 338.752238,41.1277158 C340.234381,39.5345789 340.975441,37.4073046 340.975441,34.7458289 C340.975441,32.0843532 340.234381,29.9570788 338.752238,28.3639419 C337.251335,26.7520623 335.272048,25.9461345 332.814318,25.9461345 C330.394111,25.9461345 328.433585,26.7520623 326.932682,28.3639419 C325.431778,29.9758216 324.681338,32.0562397 324.681338,34.6052587 Z" id="Path" fill="#FFFFFF"></path>
            <path d="M363.479501,20.9980636 L363.479501,36.7138116 C363.479501,41.249566 365.271177,43.5174091 368.854585,43.5174091 C372.437992,43.5174091 374.229669,41.249566 374.229669,36.7138116 L374.229669,20.9980636 L380.561574,20.9980636 L380.561574,36.8543818 C380.561574,39.0472879 380.289539,40.9402809 379.745462,42.5334178 C379.220145,43.9578696 378.310236,45.2417312 377.015707,46.3850412 C374.876919,48.240577 372.156572,49.1683311 368.854585,49.1683311 C365.571358,49.1683311 362.860392,48.240577 360.721604,46.3850412 C359.408313,45.2417312 358.479643,43.9578696 357.935566,42.5334178 C357.41025,41.2589083 357.147595,39.3659152 357.147595,36.8543818 L357.147595,20.9980636 L363.479501,20.9980636 Z" id="Path" fill="#348BA0"></path>
            <polygon id="Path" fill="#348BA0" points="398.084535 26.9020119 398.084535 48.381138 391.75263 48.381138 391.75263 26.9020119 389.051017 26.9020119 389.051017 20.9980636 391.75263 20.9980636 391.75263 10.9613516 398.084535 10.9613516 398.084535 20.9980636 403.00935 20.9980636 403.00935 26.9020119"></polygon>
            <path d="M437.661288,26.9020119 L437.661288,48.381138 L431.301241,48.381138 L431.301241,26.9020119 L429.049897,26.9020119 L429.049897,20.9980636 L431.301241,20.9980636 L431.301241,10.4271848 C431.301241,6.97851208 431.901593,4.54198637 433.102316,3.11753459 C434.75331,1.13079921 437.154719,0.137446415 440.306617,0.137446415 C441.432295,0.137446415 442.848751,0.465440261 444.556029,1.12143779 L444.556029,7.58766685 L443.908767,7.25029837 C442.539193,6.55681527 441.413532,6.21007892 440.531751,6.21007892 C439.406074,6.21007892 438.646253,6.61304278 438.252265,7.41898261 C437.858278,8.20617965 437.661288,9.72432259 437.661288,11.973457 L437.661288,20.9980636 L444.556029,20.9980636 L444.556029,26.9020119 L437.661288,26.9020119 Z" id="Path" fill="#348BA0"></path>
            <path d="M450.625277,34.4928025 C450.625277,30.5380745 452.041734,27.1737948 454.874689,24.3998624 C457.707645,21.62593 461.159671,20.2389846 465.230872,20.2389846 C469.320834,20.2389846 472.791622,21.6353012 475.643338,24.4279764 C478.457532,27.2206516 479.864608,30.6505301 479.864608,34.7177148 C479.864608,38.8223851 478.448152,42.2616349 475.615197,45.0355673 C472.76348,47.7907569 469.264551,49.1683311 465.118305,49.1683311 C461.009581,49.1683311 457.566935,47.7626431 454.790264,44.9512252 C452.013592,42.1772927 450.625277,38.6911867 450.625277,34.4928025 Z" id="Path" fill="#348BA0"></path>
            <path d="M457.097891,34.6052587 C457.097891,37.3417055 457.829571,39.5064649 459.292952,41.0996018 C460.793855,42.7114814 462.773142,43.5174091 465.230872,43.5174091 C467.707363,43.5174091 469.68665,42.7208527 471.168792,41.1277158 C472.650934,39.5345789 473.391994,37.4073046 473.391994,34.7458289 C473.391994,32.0843532 472.650934,29.9570788 471.168792,28.3639419 C469.667888,26.7520623 467.688601,25.9461345 465.230872,25.9461345 C462.810665,25.9461345 460.850139,26.7520623 459.349235,28.3639419 C457.848332,29.9758216 457.097891,32.0562397 457.097891,34.6052587 Z" id="Path" fill="#FFFFFF"></path>
            <path d="M489.564149,20.9980636 L495.896054,20.9980636 L495.896054,23.443985 C497.059255,22.2257039 498.09111,21.3916624 498.991652,20.9418355 C499.910956,20.4732659 500.999095,20.2389846 502.256101,20.2389846 C503.925857,20.2389846 505.670631,20.7825172 507.490476,21.8695988 L504.591871,27.6610909 C503.391148,26.7989228 502.218585,26.3678451 501.074146,26.3678451 C497.622067,26.3678451 495.896054,28.9730534 495.896054,34.1835481 L495.896054,48.381138 L489.564149,48.381138 L489.564149,20.9980636 Z" id="Path" fill="#348BA0"></path>
            <path d="M534.909971,20.9980636 L541.270018,20.9980636 L541.270018,23.5283272 C543.483851,21.3354211 545.979065,20.2389846 548.755737,20.2389846 C551.945157,20.2389846 554.430991,21.2417086 556.213314,23.2471868 C557.75174,24.9527804 558.520942,27.7360424 558.520942,31.5970565 L558.520942,48.381138 L552.160895,48.381138 L552.160895,33.0871005 C552.160895,30.3881393 551.785675,28.52326 551.035223,27.4924067 C550.303532,26.4428107 548.9715,25.9180205 547.039087,25.9180205 C544.937822,25.9180205 543.446322,26.6114932 542.564541,27.9984594 C541.701521,29.3666828 541.270018,31.7563523 541.270018,35.1675395 L541.270018,48.381138 L534.909971,48.381138 L534.909971,20.9980636 Z" id="Path" fill="#348BA0"></path>
            <path d="M589.720819,20.9980636 L596.080866,20.9980636 L596.080866,48.381138 L589.720819,48.381138 L589.720819,45.5135059 C587.112999,47.9500682 584.308227,49.1683311 581.30642,49.1683311 C577.516638,49.1683311 574.383549,47.8001282 571.907058,45.0636813 C569.449329,42.2710061 568.220482,38.7849001 568.220482,34.6052587 C568.220482,30.5005884 569.449329,27.0800812 571.907058,24.3436343 C574.364788,21.6071875 577.441594,20.2389846 581.137569,20.2389846 C584.326989,20.2389846 587.188044,21.5509599 589.720819,24.1749501 L589.720819,20.9980636 Z" id="Path" fill="#348BA0"></path>
            <path d="M574.693097,34.6052587 C574.693097,37.2292488 575.396635,39.3658944 576.803732,41.0152596 C578.248351,42.6833677 580.06817,43.5174091 582.263241,43.5174091 C584.608403,43.5174091 586.503265,42.7114814 587.947885,41.0996018 C589.392505,39.4314938 590.114804,37.3135906 590.114804,34.7458289 C590.114804,32.1780671 589.392505,30.060164 587.947885,28.392056 C586.503265,26.7614335 584.627164,25.9461345 582.319525,25.9461345 C580.143215,25.9461345 578.323396,26.7708048 576.860015,28.42017 C575.415396,30.088278 574.693097,32.1499536 574.693097,34.6052587 Z" id="Path" fill="#FFFFFF"></path>
            <path d="M607.074929,20.9980636 L613.434976,20.9980636 L613.434976,23.5283272 C615.648809,21.3354211 618.144024,20.2389846 620.920695,20.2389846 C624.110115,20.2389846 626.595949,21.2417086 628.378272,23.2471868 C629.916699,24.9527804 630.6859,27.7360424 630.6859,31.5970565 L630.6859,48.381138 L624.325853,48.381138 L624.325853,33.0871005 C624.325853,30.3881393 623.950633,28.52326 623.200181,27.4924067 C622.468491,26.4428107 621.136459,25.9180205 619.204045,25.9180205 C617.10278,25.9180205 615.61128,26.6114932 614.729499,27.9984594 C613.866479,29.3666828 613.434976,31.7563523 613.434976,35.1675395 L613.434976,48.381138 L607.074929,48.381138 L607.074929,20.9980636 Z" id="Path" fill="#348BA0"></path>
            <path d="M640.385441,34.4928025 C640.385441,30.5380745 641.801897,27.1737948 644.634853,24.3998624 C647.467808,21.62593 650.919835,20.2389846 654.991035,20.2389846 C659.080998,20.2389846 662.551785,21.6353012 665.403502,24.4279764 C668.217696,27.2206516 669.624772,30.6505301 669.624772,34.7177148 C669.624772,38.8223851 668.208315,42.2616349 665.37536,45.0355673 C662.523643,47.7907569 659.024714,49.1683311 654.878468,49.1683311 C650.769745,49.1683311 647.327099,47.7626431 644.550427,44.9512252 C641.773756,42.1772927 640.385441,38.6911867 640.385441,34.4928025 Z" id="Path" fill="#348BA0"></path>
            <path d="M646.858055,34.6052587 C646.858055,37.3417055 647.589734,39.5064649 649.053115,41.0996018 C650.554019,42.7114814 652.533306,43.5174091 654.991035,43.5174091 C657.467526,43.5174091 659.446813,42.7208527 660.928955,41.1277158 C662.411098,39.5345789 663.152158,37.4073046 663.152158,34.7458289 C663.152158,32.0843532 662.411098,29.9570788 660.928955,28.3639419 C659.428052,26.7520623 657.448765,25.9461345 654.991035,25.9461345 C652.570828,25.9461345 650.610303,26.7520623 649.109399,28.3639419 C647.608495,29.9758216 646.858055,32.0562397 646.858055,34.6052587 Z" id="Path" fill="#FFFFFF"></path>
        </g>
    </g>
</svg>
