<?xml version="1.0" encoding="utf-8"?>
<svg width="727px" height="495px" viewBox="0 0 727 495" version="1.1" xmlns="http://www.w3.org/2000/svg">
  <desc>Created with Sketch.</desc>
  <g>
    <g id="Page-1" stroke="none" stroke-width="1" fill="none" fill-rule="evenodd">
      <g id="Group" transform="translate(179.000000, 122.000000)">
        <polygon id="Path" fill="#BDD543" points="12 121.050682 22.3334745 115 32.7215496 121.050682 32.7215496 132.957241 22.3607748 139 12 132.957241"/>
        <polygon id="Path" fill="#4AB5A0" points="0 98.0506821 10.3334745 92 20.7215496 98.0506821 20.7215496 109.957241 10.3607748 116 0 109.957241"/>
        <polygon id="Path" fill="#4AB5A0" points="13 75.0506821 23.3334745 69 33.7215496 75.0506821 33.7215496 86.957241 23.3607748 93 13 86.957241"/>
        <polygon id="Path" fill="#4AB5A0" points="26 52.0506821 36.3334745 46 46.7215496 52.0506821 46.7215496 63.957241 36.3607748 70 26 63.957241"/>
        <polygon id="Path" fill="#4EB74F" points="25 189.050682 35.3334745 183 45.7215496 189.050682 45.7215496 200.957241 35.3607748 207 25 200.957241"/>
        <polygon id="Path" fill="#4EB74F" points="52 189.050682 62.3334745 183 72.7215496 189.050682 72.7215496 200.957241 62.3607748 207 52 200.957241"/>
        <polygon id="Path" fill="#4EB74F" points="65 212.050682 75.3334745 206 85.7215496 212.050682 85.7215496 223.957241 75.3607748 230 65 223.957241"/>
        <polygon id="Path" fill="#4EB74F" points="39 212.050682 49.3334745 206 59.7215496 212.050682 59.7215496 223.957241 49.3607748 230 39 223.957241"/>
        <polygon id="Path" fill="#4EB74F" points="79 189.050682 89.3334745 183 99.7215496 189.050682 99.7215496 200.957241 89.3607748 207 79 200.957241"/>
        <polygon id="Path" fill="#4EB74F" points="106 189.050682 116.333474 183 126.72155 189.050682 126.72155 200.957241 116.360775 207 106 200.957241"/>
        <polygon id="Path" fill="#4EB74F" points="120 166.050682 130.333474 160 140.72155 166.050682 140.72155 177.957241 130.360775 184 120 177.957241"/>
        <polygon id="Path" fill="#2494D0" points="135 189.050682 145.333474 183 155.72155 189.050682 155.72155 200.957241 145.360775 207 135 200.957241"/>
        <polygon id="Path" fill="#2494D0" points="163 189.050682 173.333474 183 183.72155 189.050682 183.72155 200.957241 173.360775 207 163 200.957241"/>
        <polygon id="Path" fill="#2494D0" points="191 188.050682 201.333474 182 211.72155 188.050682 211.72155 199.957241 201.360775 206 191 199.957241"/>
        <polygon id="Path" fill="#2494D0" points="204 166.050682 214.333474 160 224.72155 166.050682 224.72155 177.957241 214.360775 184 204 177.957241"/>
        <polygon id="Path" fill="#2494D0" points="218 143.050682 228.333474 137 238.72155 143.050682 238.72155 154.957241 228.360775 161 218 154.957241"/>
        <polygon id="Path" fill="#2494D0" points="245 143.050682 255.333474 137 265.72155 143.050682 265.72155 154.957241 255.360775 161 245 154.957241"/>
        <polygon id="Path" fill="#2CB1E4" points="246 98.0506821 256.333474 92 266.72155 98.0506821 266.72155 109.957241 256.360775 116 246 109.957241"/>
        <polygon id="Path" fill="#2494D0" points="259 120.050682 269.333474 114 279.72155 120.050682 279.72155 131.957241 269.360775 138 259 131.957241"/>
        <polygon id="Path" fill="#2CB1E4" points="233 74.0506821 243.333474 68 253.72155 74.0506821 253.72155 85.957241 243.360775 92 233 85.957241"/>
        <polygon id="Path" fill="#71CFF4" points="219 51.0506821 229.333474 45 239.72155 51.0506821 239.72155 62.957241 229.360775 69 219 62.957241"/>
        <polygon id="Path" fill="#71CFF4" points="178 29.0506821 188.333474 23 198.72155 29.0506821 198.72155 40.957241 188.360775 47 178 40.957241"/>
        <polygon id="Path" fill="#348BA0" points="150 29.0506821 160.333474 23 170.72155 29.0506821 170.72155 40.957241 160.360775 47 150 40.957241"/>
        <polygon id="Path" fill="#348BA0" points="122 29.0506821 132.333474 23 142.72155 29.0506821 142.72155 40.957241 132.360775 47 122 40.957241"/>
        <polygon id="Path" fill="#348BA0" points="108 52.0506821 118.333474 46 128.72155 52.0506821 128.72155 63.957241 118.360775 70 108 63.957241"/>
        <polygon id="Path" fill="#348BA0" points="136 52.0506821 146.333474 46 156.72155 52.0506821 156.72155 63.957241 146.360775 70 136 63.957241"/>
        <polygon id="Path" fill="#348BA0" points="122 75.0506821 132.333474 69 142.72155 75.0506821 142.72155 86.957241 132.360775 93 122 86.957241"/>
        <polygon id="Path" fill="#4AB5A0" points="81 98.0506821 91.3334745 92 101.72155 98.0506821 101.72155 109.957241 91.3607748 116 81 109.957241"/>
        <polygon id="Path" fill="#BDD543" points="94 120.050682 104.333474 114 114.72155 120.050682 114.72155 131.957241 104.360775 138 94 131.957241"/>
        <polygon id="Path" fill="#4EB74F" points="107 143.050682 117.333474 137 127.72155 143.050682 127.72155 154.957241 117.360775 161 107 154.957241"/>
        <polygon id="Path" fill="#348BA0" points="94 29.0506821 104.333474 23 114.72155 29.0506821 114.72155 40.957241 104.360775 47 94 40.957241"/>
        <polygon id="Path" fill="#348BA0" points="108 7.05068215 118.333474 1 128.72155 7.05068215 128.72155 18.957241 118.360775 25 108 18.957241"/>
        <polygon id="Path" fill="#348BA0" points="136 6.05068215 146.333474 0 156.72155 6.05068215 156.72155 17.957241 146.360775 24 136 17.957241"/>
        <polygon id="Path" fill="#71CFF4" points="164 6.05068215 174.333474 0 184.72155 6.05068215 184.72155 17.957241 174.360775 24 164 17.957241"/>
        <polygon id="Path" fill="#71CFF4" points="191 6.05068215 201.333474 0 211.72155 6.05068215 211.72155 17.957241 201.360775 24 191 17.957241"/>
        <polygon id="Path" fill="#348BA0" points="94 75.0506821 104.333474 69 114.72155 75.0506821 114.72155 86.957241 104.360775 93 94 86.957241"/>
        <polygon id="Path" fill="#348BA0" points="80 52.0506821 90.3334745 46 100.72155 52.0506821 100.72155 63.957241 90.3607748 70 80 63.957241"/>
        <polygon id="Path" fill="#4AB5A0" points="53 52.0506821 63.3334745 46 73.7215496 52.0506821 73.7215496 63.957241 63.3607748 70 53 63.957241"/>
        <polygon id="Path" fill="#348BA0" points="66 29.0506821 76.3334745 23 86.7215496 29.0506821 86.7215496 40.957241 76.3607748 47 66 40.957241"/>
        <polygon id="Path" fill="#4AB5A0" points="39 75.0506821 49.3334745 69 59.7215496 75.0506821 59.7215496 86.957241 49.3607748 93 39 86.957241"/>
        <polygon id="Path" fill="#4AB5A0" points="26 98.0506821 36.3334745 92 46.7215496 98.0506821 46.7215496 109.957241 36.3607748 116 26 109.957241"/>
        <polygon id="Path" fill="#4AB5A0" points="53 98.0506821 63.3334745 92 73.7215496 98.0506821 73.7215496 109.957241 63.3607748 116 53 109.957241"/>
        <polygon id="Path" fill="#4AB5A0" points="66 75.0506821 76.3334745 69 86.7215496 75.0506821 86.7215496 86.957241 76.3607748 93 66 86.957241"/>
        <polygon id="Path" fill="#71CFF4" points="206 75.0506821 216.333474 69 226.72155 75.0506821 226.72155 86.957241 216.360775 93 206 86.957241"/>
        <polygon id="Path" fill="#71CFF4" points="178 75.0506821 188.333474 69 198.72155 75.0506821 198.72155 86.957241 188.360775 93 178 86.957241"/>
        <polygon id="Path" fill="#348BA0" points="150 75.0506821 160.333474 69 170.72155 75.0506821 170.72155 86.957241 160.360775 93 150 86.957241"/>
        <polygon id="Path" fill="#2494D0" points="120 212.050682 130.333474 206 140.72155 212.050682 140.72155 223.957241 130.360775 230 120 223.957241"/>
        <polygon id="Path" fill="#2494D0" points="107 235.050682 117.333474 229 127.72155 235.050682 127.72155 246.957241 117.360775 253 107 246.957241"/>
        <polygon id="Path" fill="#2494D0" points="93 258.050682 103.333474 252 113.72155 258.050682 113.72155 269.957241 103.360775 276 93 269.957241"/>
        <polygon id="Path" fill="#4EB74F" points="39 166.050682 49.3334745 160 59.7215496 166.050682 59.7215496 177.957241 49.3607748 184 39 177.957241"/>
        <polygon id="Path" fill="#BDD543" points="12 166.050682 22.3334745 160 32.7215496 166.050682 32.7215496 177.957241 22.3607748 184 12 177.957241"/>
        <polygon id="Path" fill="#BDD543" points="26 143.050682 36.3334745 137 46.7215496 143.050682 46.7215496 154.957241 36.3607748 161 26 154.957241"/>
        <polygon id="Path" fill="#BDD543" points="53 144.050682 63.3334745 138 73.7215496 144.050682 73.7215496 155.957241 63.3607748 162 53 155.957241"/>
        <polygon id="Path" fill="#4EB74F" points="66 166.050682 76.3334745 160 86.7215496 166.050682 86.7215496 177.957241 76.3607748 184 66 177.957241"/>
        <polygon id="Path" fill="#BDD543" points="80 144.050682 90.3334745 138 100.72155 144.050682 100.72155 155.957241 90.3607748 162 80 155.957241"/>
        <polygon id="Path" fill="#4EB74F" points="93 166.050682 103.333474 160 113.72155 166.050682 113.72155 177.957241 103.360775 184 93 177.957241"/>
        <polygon id="Path" fill="#BDD543" points="39 120.050682 49.3334745 114 59.7215496 120.050682 59.7215496 131.957241 49.3607748 138 39 131.957241"/>
        <polygon id="Path" fill="#BDD543" points="67 120.050682 77.3334745 114 87.7215496 120.050682 87.7215496 131.957241 77.3607748 138 67 131.957241"/>
        <polygon id="Path" fill="#4AB5A0" points="108 98.0506821 118.333474 92 128.72155 98.0506821 128.72155 109.957241 118.360775 116 108 109.957241"/>
        <polygon id="Path" fill="#71CFF4" points="192 98.0506821 202.333474 92 212.72155 98.0506821 212.72155 109.957241 202.360775 116 192 109.957241"/>
        <polygon id="Path" fill="#2CB1E4" points="219 98.0506821 229.333474 92 239.72155 98.0506821 239.72155 109.957241 229.360775 116 219 109.957241"/>
        <polygon id="Path" fill="#F0F0F0" points="164 98.0506821 174.333474 92 184.72155 98.0506821 184.72155 109.957241 174.360775 116 164 109.957241"/>
        <polygon id="Path" fill="#C6C6C6" points="136 98.0506821 146.333474 92 156.72155 98.0506821 156.72155 109.957241 146.360775 116 136 109.957241"/>
        <polygon id="Path" fill="#E3E1E1" points="177 120.050682 187.333474 114 197.72155 120.050682 197.72155 131.957241 187.360775 138 177 131.957241"/>
        <polygon id="Path" fill="#2494D0" points="204 120.050682 214.333474 114 224.72155 120.050682 224.72155 131.957241 214.360775 138 204 131.957241"/>
        <polygon id="Path" fill="#2494D0" points="232 120.050682 242.333474 114 252.72155 120.050682 252.72155 131.957241 242.360775 138 232 131.957241"/>
        <polygon id="Path" fill="#DADBDD" points="149 120.050682 159.333474 114 169.72155 120.050682 169.72155 131.957241 159.360775 138 149 131.957241"/>
        <polygon id="Path" fill="#CBCED0" points="163 143.050682 173.333474 137 183.72155 143.050682 183.72155 154.957241 173.360775 161 163 154.957241"/>
        <polygon id="Path" fill="#2494D0" points="190 143.050682 200.333474 137 210.72155 143.050682 210.72155 154.957241 200.360775 161 190 154.957241"/>
        <polygon id="Path" fill="#DADBDD" points="135 143.050682 145.333474 137 155.72155 143.050682 155.72155 154.957241 145.360775 161 135 154.957241"/>
        <polygon id="Path" fill="#EEEEEE" points="121 120.050682 131.333474 114 141.72155 120.050682 141.72155 131.957241 131.360775 138 121 131.957241"/>
        <polygon id="Path" fill="#71CFF4" points="192 52.0506821 202.333474 46 212.72155 52.0506821 212.72155 63.957241 202.360775 70 192 63.957241"/>
        <polygon id="Path" fill="#71CFF4" points="205 28.0506821 215.333474 22 225.72155 28.0506821 225.72155 39.957241 215.360775 46 205 39.957241"/>
        <polygon id="Path" fill="#71CFF4" points="232 28.0506821 242.333474 22 252.72155 28.0506821 252.72155 39.957241 242.360775 46 232 39.957241"/>
        <polygon id="Path" fill="#2CB1E4" points="246 51.0506821 256.333474 45 266.72155 51.0506821 266.72155 62.957241 256.360775 69 246 62.957241"/>
        <polygon id="Path" fill="#2CB1E4" points="259 75.0506821 269.333474 69 279.72155 75.0506821 279.72155 86.957241 269.360775 93 259 86.957241"/>
        <polygon id="Path" fill="#2CB1E4" points="273 97.0506821 283.333474 91 293.72155 97.0506821 293.72155 108.957241 283.360775 115 273 108.957241"/>
        <polygon id="Path" fill="#2CB1E4" points="272 51.0506821 282.333474 45 292.72155 51.0506821 292.72155 62.957241 282.360775 69 272 62.957241"/>
        <polygon id="Path" fill="#2CB1E4" points="286 74.0506821 296.333474 68 306.72155 74.0506821 306.72155 85.957241 296.360775 92 286 85.957241"/>
        <polygon id="Path" fill="#2CB1E4" points="300 97.0506821 310.333474 91 320.72155 97.0506821 320.72155 108.957241 310.360775 115 300 108.957241"/>
        <polygon id="Path" fill="#2494D0" points="286 120.050682 296.333474 114 306.72155 120.050682 306.72155 131.957241 296.360775 138 286 131.957241"/>
        <polygon id="Path" fill="#2494D0" points="272 143.050682 282.333474 137 292.72155 143.050682 292.72155 154.957241 282.360775 161 272 154.957241"/>
        <polygon id="Path" fill="#71CFF4" points="164 52.0506821 174.333474 46 184.72155 52.0506821 184.72155 63.957241 174.360775 70 164 63.957241"/>
        <polygon id="Path" fill="#2494D0" points="177 166.050682 187.333474 160 197.72155 166.050682 197.72155 177.957241 187.360775 184 177 177.957241"/>
        <polygon id="Path" fill="#2494D0" points="149 166.050682 159.333474 160 169.72155 166.050682 169.72155 177.957241 159.360775 184 149 177.957241"/>
      </g>
      <text id="brainblocks" font-family="Futura-Medium, Futura" font-size="80" font-weight="400" letter-spacing="3.33333325" style="white-space: pre;">
            <tspan x="137" y="66" fill="#348BA0">b</tspan>
            <tspan x="188.302083" y="66" letter-spacing="3.70370364" fill="#71CFF4">rai</tspan>
            <tspan x="296.678819" y="66" letter-spacing="3.70370364" fill="#348BA0">nblocks</tspan>
        </text>
      <text id="simple-checkout-for" font-family="Futura-Medium, Futura" font-size="50" font-weight="400" letter-spacing="2.60416651" fill="#348BA0" style="white-space: pre;" x="45" y="0">
            <tspan x="44" y="482" style="font-size: 50px; word-spacing: 0px; letter-spacing: 2.6px;" transform="">simple checkout for nano</tspan>
        </text>
    </g>
  </g>
</svg>