<?xml version="1.0" encoding="utf-8"?>
<!-- Generator: Adobe Illustrator 22.0.1, SVG Export Plug-In . SVG Version: 6.00 Build 0)  -->
<svg version="1.1" id="Layer_1" xmlns="http://www.w3.org/2000/svg" xmlns:xlink="http://www.w3.org/1999/xlink" x="0px" y="0px"
	 viewBox="0 0 918 513" style="enable-background:new 0 0 918 513;" xml:space="preserve">
<style type="text/css">
	.st0{clip-path:url(#SVGID_2_);}
	.st1{fill:url(#SVGID_3_);}
	.st2{fill:url(#SVGID_4_);}
	.st3{fill:#2693CF;}
	.st4{fill:#80C241;}
	.st5{fill:#2DAFE1;}
	.st6{fill:#358A9F;}
	.st7{fill:#4EB64D;}
	.st8{fill:#4AB49F;}
	.st9{fill:#72CEF2;}
	.st10{fill:#2B2B2B;}
	.st11{fill:#FFFFFF;}
	.st12{fill:none;stroke:#FFFFFF;stroke-width:2;stroke-linecap:round;stroke-miterlimit:10;}
</style>
<g>
	<defs>
		<rect id="SVGID_1_" x="-69" width="1056" height="513"/>
	</defs>
	<clipPath id="SVGID_2_">
		<use xlink:href="#SVGID_1_"  style="overflow:visible;"/>
	</clipPath>
	<g class="st0">
		
			<linearGradient id="SVGID_3_" gradientUnits="userSpaceOnUse" x1="158.459" y1="582.725" x2="620.6163" y2="829.3541" gradientTransform="matrix(0.9112 0.412 -0.412 0.9112 310.4323 -357.5347)">
			<stop  offset="0" style="stop-color:#7DCE23"/>
			<stop  offset="1" style="stop-color:#4EB74F"/>
		</linearGradient>
		<path class="st1" d="M555,258l-207.9-94c-11-5-23.8-3.7-33.6,3.3L128.1,300.4c-9.8,7-15.1,18.8-13.9,30.8l22.6,227.1
			c1.2,12,8.7,22.5,19.7,27.4l207.9,94c11,5,23.8,3.7,33.6-3.3l185.4-133.1c9.8-7,15.1-18.8,13.9-30.8l-22.6-227.1
			C573.5,273.4,566,263,555,258z"/>
		
			<linearGradient id="SVGID_4_" gradientUnits="userSpaceOnUse" x1="1463.6682" y1="-1340.7686" x2="2242.3591" y2="-1340.7686" gradientTransform="matrix(0.9203 -0.3912 0.3912 0.9203 -681.9889 2483.7964)">
			<stop  offset="0" style="stop-color:#CCA0FF"/>
			<stop  offset="1" style="stop-color:#0044FF"/>
		</linearGradient>
		<path class="st2" d="M520.4,142.2L208.3,274.8c-16.5,7-28,22.3-30.2,40.1l-41.2,336.7c-2.2,17.8,5.3,35.4,19.6,46.2l271,204
			c14.3,10.8,33.3,13.1,49.8,6.1l312.1-132.7c16.5-7,28-22.3,30.2-40.1l41.2-336.7c2.2-17.8-5.3-35.4-19.6-46.2l-271-204
			C555.9,137.5,536.9,135.2,520.4,142.2z"/>
	</g>
</g>
<desc>Created with Sketch.</desc>
<g>
	<g>
		<path class="st3" d="M359.5,93.3c0,2-1.6,3.7-3.7,3.7c0,0,0,0,0,0c-0.5,0-2.1,0-2.9,0.8c-0.8,0.8-0.8,2.4-0.8,2.9
			c0,2-1.6,3.7-3.7,3.7h0c-2,0-3.7-1.6-3.7-3.7c0-2,1.6-3.7,3.7-3.7h0c0.5,0,2.1,0,2.9-0.8c0.8-0.8,0.8-2.4,0.8-2.9
			c0-2,1.6-3.7,3.7-3.7h0C357.8,89.6,359.5,91.3,359.5,93.3z"/>
		<circle class="st4" cx="341.1" cy="93.3" r="3.7"/>
		<path class="st5" d="M381.6,85.9c0,2-1.6,3.7-3.7,3.7h0c-0.5,0-2.1,0-2.9,0.8c-0.8,0.8-0.8,2.4-0.8,2.9c0,2-1.6,3.7-3.7,3.7h0
			c-2,0-3.7-1.6-3.7-3.7c0-2,1.6-3.7,3.7-3.7h0c0.5,0,2.1,0,2.9-0.8c0.8-0.8,0.8-2.4,0.8-2.9c0-2,1.6-3.7,3.7-3.7h0
			C380,82.2,381.6,83.9,381.6,85.9z"/>
		<path class="st6" d="M366.9,85.9c0,2-1.6,3.7-3.7,3.7h0c-2,0-3.7-1.6-3.7-3.7c0-0.3,0-0.8-0.1-1.3c-0.1-0.6-0.3-1.2-0.7-1.6
			c-0.8-0.8-2.4-0.8-2.9-0.8h0c-0.5,0-2.1,0-2.9,0.8c-0.8,0.8-0.8,2.4-0.8,2.9c0,2-1.6,3.7-3.7,3.7h0c-2,0-3.7-1.6-3.7-3.7
			c0-2,1.6-3.7,3.7-3.7h0c0.5,0,2.1,0,2.9-0.8c0.8-0.8,0.8-2.4,0.8-2.9c0-2,1.6-3.7,3.7-3.7h0c2,0,3.7,1.6,3.7,3.7
			c0,0.3,0,0.8,0.1,1.3c0.1,0.6,0.3,1.2,0.7,1.6c0.8,0.8,2.4,0.8,2.9,0.8h0C365.2,82.2,366.9,83.9,366.9,85.9z"/>
		<circle class="st7" cx="333.7" cy="85.9" r="3.7"/>
		<circle class="st8" cx="341.1" cy="78.5" r="3.7"/>
		<path class="st9" d="M374.2,78.5c0,2-1.6,3.7-3.7,3.7h0c-2,0-3.7-1.6-3.7-3.7c0-0.3,0-0.8-0.1-1.3c-0.1-0.6-0.3-1.2-0.7-1.6
			c-0.8-0.8-2.4-0.8-2.9-0.8h0c-2,0-3.7-1.6-3.7-3.7c0-2,1.6-3.7,3.7-3.7s3.7,1.6,3.7,3.7c0,0.3,0,0.8,0.1,1.3
			c0.1,0.6,0.3,1.2,0.7,1.6c0.8,0.8,2.4,0.8,2.9,0.8h0C372.6,74.9,374.2,76.5,374.2,78.5z"/>
		<circle class="st3" cx="341.1" cy="108" r="3.7"/>
	</g>
	<g>
		<g>
			<path class="st10" d="M417,94.8c0,2.8-1.1,7-8.7,7h-9.5V77.9h8.6c4.1,0,8.3,1.5,8.3,6.7c0,2.4-1.3,3.8-2.8,4.6
				C414.7,89.9,417,91.5,417,94.8z M403.1,87.7h4.6c0.6,0,3.7,0.2,3.7-2.9c0-2.7-2.3-3.2-4-3.2h-4.2V87.7z M412.7,94.6
				c0-2.8-2.8-3.1-4.8-3.1h-4.8V98h4.9C410.5,98,412.7,97.3,412.7,94.6z"/>
			<path class="st10" d="M430.1,83.6v3.7c-2.4,0-4,0.4-4.6,0.6v13.8h-4.3V85.5C421.2,85.5,425,83.7,430.1,83.6z"/>
			<path class="st10" d="M448.1,91.2v4.8c0,2.9-2,6-7.5,6c-5.7,0-7.7-3.2-7.7-6.1c0-1.3,0.5-5.6,7.7-5.6c1.1,0,2.2,0.1,3.2,0.3
				c0-1.9-1-3.4-3.8-3.4c-2.2,0-3.9,0.4-5.2,0.9v-3.5c1.5-0.6,3.3-1,5.5-1C445.3,83.6,448.1,86.3,448.1,91.2z M443.8,93.3
				c-0.8-0.1-1.6-0.2-2.6-0.2c-2.9,0-4,0.9-4,2.3c0,1.9,1.1,2.9,3.4,2.9c2.4,0,3.3-1.1,3.3-2.7V93.3z"/>
			<path class="st10" d="M453.1,81.5v-3.9h4.4v3.9H453.1z M453.2,101.8V83.9h4.3v17.9H453.2z"/>
			<path class="st10" d="M479.4,91.1v10.8h-4.3V90.7c0-1.6-0.3-3.3-4.2-3.3c-1.2,0-2.4,0.1-3.3,0.3v14h-4.3V85.6
				c0.1-0.1,3.7-2,8.2-2C476.4,83.6,479.4,86.4,479.4,91.1z"/>
			<path class="st10" d="M503.9,94.8c0,2.8-1.1,7-8.7,7h-9.5V77.9h8.6c4.1,0,8.3,1.5,8.3,6.7c0,2.4-1.3,3.8-2.8,4.6
				C501.6,89.9,503.9,91.5,503.9,94.8z M490,87.7h4.6c0.6,0,3.7,0.2,3.7-2.9c0-2.7-2.3-3.2-4-3.2H490V87.7z M499.6,94.6
				c0-2.8-2.8-3.1-4.8-3.1H490V98h4.9C497.4,98,499.6,97.3,499.6,94.6z"/>
			<path class="st10" d="M508.9,101.8V77.1h4.3v24.7H508.9z"/>
			<path class="st10" d="M534.9,92.9c0,5.9-3,9.2-8.5,9.2c-5.4,0-8.5-3.3-8.5-9.2s3-9.2,8.5-9.2C531.9,83.7,534.9,86.9,534.9,92.9z
				 M530.6,92.9c0-4.7-1.6-5.7-4.2-5.7s-4.2,0.9-4.2,5.7c0,4.7,1.6,5.7,4.2,5.7S530.6,97.6,530.6,92.9z"/>
			<path class="st10" d="M547.5,98.4c1.6,0,3.1-0.4,4.4-0.9v3.6c-1.5,0.6-3.3,1-5.2,1c-5.4,0-8.5-3.3-8.5-9.2s3-9.2,8.5-9.2
				c1.9,0,3.6,0.4,5.2,1v3.6c-1.3-0.5-2.8-0.9-4.4-0.9c-3,0-4.9,0.9-4.9,5.5C542.6,97.5,544.5,98.4,547.5,98.4z"/>
			<path class="st10" d="M567.3,101.8l-5.9-7.1l-1.2,1.2v5.8h-4.3V77.2h4.3v13.3l6-6.6h5.7l-7.8,8l8.6,9.9H567.3z"/>
			<path class="st10" d="M588,96.9c0,3-2.6,5.2-6.7,5.2c-2.3,0-4.2-0.6-5.7-1.5v-3.8c1.3,0.9,3,1.6,5.1,1.6c2.8,0,3-0.8,3-1.7
				c0-2.9-8.5-1.2-8.5-7.4c0-3.8,3.1-5.6,6.6-5.6c1.9,0,3.5,0.5,4.9,1.3v3.3c-1.1-0.5-2.4-0.9-4.1-0.9c-1.8,0-3.1,0.4-3.1,1.5
				C579.5,91.6,588,89.6,588,96.9z"/>
		</g>
	</g>
</g>
<g>
	<path class="st11" d="M249.5,266.1h20.1v8.1h-20.1v12.1h23.2v7.7h-31.8v-47.7h31.8v7.7h-23.2V266.1z"/>
	<path class="st11" d="M308.2,272.9v9.7c0,5.8-3.9,12-15,12c-11.3,0-15.3-6.3-15.3-12.2c0-2.6,1.1-11.2,15.4-11.2
		c2.2,0,4.4,0.2,6.3,0.5c0-3.9-2-6.7-7.6-6.7c-4.3,0-7.8,0.7-10.5,1.8v-6.9c3-1.2,6.7-2,11-2C302.7,257.7,308.2,263.1,308.2,272.9z
		 M299.7,277c-1.5-0.2-3.2-0.4-5.2-0.4c-5.8,0-8.1,1.7-8.1,4.7c0,3.7,2.2,5.7,6.7,5.7c4.8,0,6.5-2.1,6.5-5.4V277z"/>
	<path class="st11" d="M339.7,284.1c0,5.9-5.2,10.5-13.3,10.5c-4.5,0-8.3-1.2-11.3-2.9V284c2.6,1.7,6,3.2,10.1,3.2
		c5.5,0,5.9-1.5,5.9-3.4c0-5.9-17-2.4-17-14.8c0-7.5,6.2-11.2,13.2-11.2c3.7,0,7,1,9.7,2.6v6.5c-2.1-1-4.9-1.7-8.2-1.7
		c-3.6,0-6.2,0.7-6.2,3C322.6,273.6,339.7,269.5,339.7,284.1z"/>
	<path class="st11" d="M377.3,258.3l-13.6,36.6c-4.3,11.7-9.4,13.2-13.2,13.2c-2.1,0-3.9-0.4-5.4-1v-7.2c1.2,0.5,2.6,0.9,4.1,0.9
		c3.1,0,5.7-5.3,6.9-8.7l-12.8-33.9h9.1l8,24.9l7.9-24.9H377.3z"/>
	<path class="st11" d="M422.9,287.2c3.3,0,6.2-0.7,8.9-1.8v7.2c-3.1,1.2-6.5,2-10.3,2c-10.9,0-16.9-6.5-16.9-18.4s6-18.5,16.9-18.5
		c3.8,0,7.2,0.8,10.3,2v7.2c-2.6-1.1-5.6-1.7-8.9-1.7c-6,0-9.7,1.8-9.7,11C413.1,285.3,416.8,287.2,422.9,287.2z"/>
	<path class="st11" d="M470,272.5V294h-8.5v-22.2c0-3.1-0.7-6.5-8.7-6.5c-2.4,0-4.3,0.4-5.7,1.1V294h-8.6v-49.3h8.6v14.2
		c2-0.8,4.4-1.2,7.2-1.2C464.2,257.7,470,263.2,470,272.5z"/>
	<path class="st11" d="M506.5,284.4v6.9c-3.3,1.8-7.7,3.2-13.5,3.2c-7.1,0-16.6-2.9-16.6-18c0-10.7,4.3-18.9,16-18.9
		c11.2,0,16,8.4,16,17.3c0,1.6,0,3-0.1,4.4h-23c0.5,6.9,4.9,7.8,9.1,7.8C499.4,287.2,503.5,285.8,506.5,284.4z M485.3,273.5h14.4
		c-0.4-4.5-2.6-8.8-7.2-8.8C488.2,264.7,485.8,267.1,485.3,273.5z"/>
	<path class="st11" d="M531.9,287.2c3.3,0,6.2-0.7,8.9-1.8v7.2c-3.1,1.2-6.5,2-10.3,2c-10.9,0-16.9-6.5-16.9-18.4s6-18.5,16.9-18.5
		c3.8,0,7.2,0.8,10.3,2v7.2c-2.6-1.1-5.6-1.7-8.9-1.7c-6,0-9.7,1.8-9.7,11C522.2,285.3,525.9,287.2,531.9,287.2z"/>
	<path class="st11" d="M569.7,294l-11.8-14.1l-2.4,2.4V294H547v-49.1h8.6v26.5l12-13.1H579l-15.5,15.9l17.2,19.8H569.7z"/>
	<path class="st11" d="M615.6,276.2c0,11.9-6,18.4-16.9,18.4c-10.9,0-16.9-6.5-16.9-18.4s6-18.4,16.9-18.4
		C609.6,257.8,615.6,264.3,615.6,276.2z M607,276.2c0-9.4-3.2-11.3-8.3-11.3s-8.3,1.9-8.3,11.3s3.2,11.3,8.3,11.3
		S607,285.6,607,276.2z"/>
	<path class="st11" d="M654.1,258.3v19.5c0,10.5-6,16.7-16.2,16.7c-10.1,0-16.1-6.2-16.1-16.7v-19.5h8.7V279c0,5.7,2.1,8.1,7.4,8.1
		c5.4,0,7.5-2.4,7.5-8.1v-20.7H654.1z"/>
	<path class="st11" d="M673.7,265.7v17.6c0,3.2,1.2,3.9,4.4,3.9c1.6,0,2.9-0.3,4.1-0.8v7.1c-1.7,0.7-3.6,1.1-5.7,1.1
		c-7.1,0-11.4-4.4-11.4-11.8v-17.1h-6v-7.4h6v-10.6h8.6v10.6h8.4v7.4H673.7z"/>
	<path class="st11" d="M337.1,327.9h8.2v7.4h-8.2v28.3h-8.6v-28.3h-6.1v-7.4h6.1c0.1-11.8,6.5-14.8,13.3-14.8c1.2,0,2.4,0.1,3.5,0.4
		v6.7c-0.6-0.1-1.3-0.1-1.9-0.1C339.2,320,337.1,321.4,337.1,327.9z"/>
	<path class="st11" d="M381.3,345.8c0,11.9-6,18.4-16.9,18.4c-10.9,0-16.9-6.5-16.9-18.4s6-18.4,16.9-18.4
		C375.2,327.4,381.3,333.9,381.3,345.8z M372.7,345.8c0-9.4-3.2-11.3-8.3-11.3s-8.3,1.9-8.3,11.3s3.2,11.3,8.3,11.3
		S372.7,355.3,372.7,345.8z"/>
	<path class="st11" d="M405.7,327.3v7.4c-4.8,0.1-8,0.9-9.2,1.2v27.6h-8.6v-32.5C387.9,331.1,395.5,327.5,405.7,327.3z"/>
	<path class="st11" d="M477.8,315.9v47.7h-9.6L443.5,328v35.6h-8.6v-47.7h9.7l24.6,35.4v-35.4H477.8z"/>
	<path class="st11" d="M516.3,342.5v9.7c0,5.8-3.9,12-15,12c-11.3,0-15.3-6.3-15.3-12.2c0-2.6,1.1-11.2,15.4-11.2
		c2.2,0,4.4,0.2,6.3,0.5c0-3.9-2-6.7-7.6-6.7c-4.3,0-7.8,0.7-10.5,1.8v-6.9c3-1.2,6.7-2,11-2C510.7,327.3,516.3,332.7,516.3,342.5z
		 M507.7,346.7c-1.5-0.2-3.2-0.4-5.2-0.4c-5.8,0-8.1,1.7-8.1,4.7c0,3.7,2.2,5.7,6.7,5.7c4.8,0,6.5-2.1,6.5-5.4V346.7z"/>
	<path class="st11" d="M556.3,342.2v21.5h-8.5v-22.2c0-3.1-0.6-6.5-8.4-6.5c-2.4,0-4.7,0.3-6.7,0.6v28.1h-8.6v-32.4
		c0.3-0.1,7.3-3.9,16.4-3.9C550.5,327.3,556.3,332.8,556.3,342.2z"/>
	<path class="st11" d="M597,345.8c0,11.9-6,18.4-16.9,18.4c-10.9,0-16.9-6.5-16.9-18.4s6-18.4,16.9-18.4
		C591,327.4,597,333.9,597,345.8z M588.4,345.8c0-9.4-3.2-11.3-8.3-11.3s-8.3,1.9-8.3,11.3s3.2,11.3,8.3,11.3
		S588.4,355.3,588.4,345.8z"/>
</g>
<circle class="st8" cx="789.1" cy="214.5" r="41.1"/>
<circle class="st5" cx="178.8" cy="214.5" r="12.9"/>
<circle class="st4" cx="726.5" cy="154.5" r="12.9"/>
<g>
	<g>
		<line class="st12" x1="459" y1="431" x2="459" y2="443.8"/>
		<polyline class="st12" points="453.2,439.8 458.9,444.2 464.8,439.8 		"/>
	</g>
	<circle class="st12" cx="459" cy="437.6" r="18.6"/>
</g>
</svg>
