<svg width="219" height="212" viewBox="0 0 219 212" fill="none" xmlns="http://www.w3.org/2000/svg">
<path d="M158.984 139.872C188.056 118.578 171.215 79.8775 145.346 59.4448C77.6467 5.97176 12.7803 99.2908 17.2709 135.011C23.7815 186.797 86.9117 215.956 96.6208 176.94C106.33 137.924 143.858 147.821 158.984 139.872Z" fill="#58677D" fill-opacity="0.1"/>
<path d="M59.1062 143.218C58.3033 179.245 99.2594 189.442 131.217 181.356C214.852 160.196 180.301 51.9259 149.228 33.745C104.178 7.38626 42.6152 39.7226 67.6593 71.1756C92.7033 102.629 62.0077 126.378 59.1062 143.218Z" fill="#7379AF" fill-opacity="0.1"/>
<path d="M207.347 92.6923C206.96 92.3949 206.506 92.1959 206.025 92.1124C205.518 91.9959 205.001 91.9228 204.486 91.8415L197.815 90.8796C197.142 90.7546 196.455 90.7182 195.772 90.7712C195.429 90.7993 195.096 90.8952 194.791 91.0534C194.486 91.2115 194.215 91.4288 193.994 91.6925C193.796 91.9378 193.687 92.2437 193.686 92.5595C193.723 92.8773 193.826 93.1838 193.989 93.4591C194.054 93.5877 194.109 93.7208 194.154 93.8574C194.218 94.1639 194.298 94.4668 194.393 94.7651C194.422 94.8297 194.461 94.8899 194.507 94.9439C194.508 94.9593 194.508 94.9747 194.507 94.99C194.433 95.3639 194.669 95.7541 194.563 96.1145C194.471 96.4234 194.171 96.6103 193.981 96.8677C193.854 97.0503 193.784 97.2661 193.78 97.4882C193.775 97.7103 193.835 97.9289 193.954 98.1168C194.157 98.4311 194.526 98.6452 194.631 99.0056C194.769 99.4797 194.396 99.9376 194.062 100.303C193.449 100.977 192.882 101.691 192.366 102.441C192.221 102.626 192.127 102.846 192.095 103.078C192.065 103.549 192.518 103.964 192.439 104.433C192.377 104.801 192.017 105.026 191.705 105.246C190.553 106.004 189.629 107.224 189.537 108.603C189.242 106.409 188.332 104.342 186.914 102.642C186.527 102.176 186.102 101.707 185.942 101.116C185.882 100.881 185.871 100.629 185.79 100.401C185.519 99.683 184.657 99.3741 184.281 98.7129C184.01 98.2469 184.01 97.6481 183.674 97.2389C183.338 96.8298 182.809 96.7377 182.52 96.3421C182.375 96.0741 182.252 95.795 182.151 95.5075C182.029 95.2731 181.858 95.0678 181.65 94.906C181.61 94.874 181.568 94.8442 181.525 94.8166C181.57 94.7763 181.606 94.7271 181.631 94.672C181.656 94.6169 181.669 94.5572 181.669 94.4969C181.669 94.1798 181.354 93.9712 181.081 93.814C180.729 93.6135 180.384 93.3968 180.048 93.1719C180.415 93.0012 180.733 92.7413 180.972 92.4159C181.273 91.9306 181.397 91.3565 181.325 90.7902C181.306 90.3331 181.135 89.8954 180.84 89.5465C180.669 89.3649 180.455 89.2349 180.276 89.0642C179.813 88.6117 179.656 87.9424 179.463 87.3247C179.208 86.5118 178.81 85.6583 178.068 85.2275C177.71 85.0188 177.293 84.9213 176.943 84.7018C176.594 84.4823 176.301 84.0678 176.423 83.6695C176.504 83.3985 176.756 83.2116 176.927 82.9812C177.131 82.6834 177.209 82.3173 177.145 81.9622C177.08 81.6071 176.878 81.2918 176.583 81.0845C176.382 80.9572 176.136 80.8461 176.095 80.6131C175.938 80.5723 175.796 80.4882 175.685 80.3703C175.574 80.2524 175.498 80.1055 175.467 79.9465C175.406 79.6279 175.406 79.3006 175.467 78.9819C175.537 78.478 175.607 77.9758 175.675 77.4754C175.795 77.5251 175.923 77.5506 176.052 77.5506C176.181 77.5506 176.309 77.5251 176.428 77.4754C176.663 77.8559 176.935 78.2118 177.241 78.5376C178.066 79.5119 178.709 80.6272 179.138 81.8297C179.292 82.2632 179.45 82.7482 179.851 82.9785C179.989 83.0571 180.146 83.0977 180.281 83.1817C180.448 83.2982 180.592 83.4453 180.704 83.6153C181.029 84.0461 181.354 84.4742 181.677 84.905L181.693 84.9701C181.702 85.0082 181.716 85.0448 181.736 85.0784C181.796 85.146 181.88 85.1885 181.969 85.1977C182.967 85.428 184.086 85.6393 184.95 85.0947C185.73 84.607 186.072 83.6424 186.733 82.9975C187.202 82.5396 187.865 82.1846 187.998 81.5398C187.84 81.4909 187.685 81.434 187.532 81.369C187.668 81.2336 187.803 81.0764 187.987 80.8976C188.255 80.6355 188.497 80.3478 188.708 80.0387C188.937 79.6573 189.119 79.2497 189.25 78.8248C189.772 77.3363 190.296 75.847 190.822 74.3567C191.071 73.6522 191.32 72.9423 191.634 72.2568C191.96 71.5144 192.344 70.8018 192.699 70.0729C193.615 68.1773 194.322 66.1876 194.807 64.139C194.893 63.8595 194.922 63.5655 194.891 63.2746C194.815 62.8059 194.461 62.4374 194.122 62.1041C193.781 61.7354 193.393 61.4137 192.968 61.1476C192.754 61.0148 192.516 60.9257 192.268 60.8857C192.019 60.8457 191.765 60.8555 191.521 60.9146C190.827 61.1178 190.391 61.8277 190.231 62.5403C190.071 63.253 190.131 63.9872 190.063 64.708C189.965 65.7512 189.608 66.7591 189.521 67.805C189.475 68.4092 189.521 69.0216 189.448 69.6258C189.315 70.4166 189.039 71.1767 188.635 71.8693C187.756 73.5213 186.567 74.9878 185.132 76.1884C184.966 76.3266 184.796 76.4593 184.633 76.6084C184.633 76.4918 184.652 76.3726 184.668 76.2561C184.55 76.2868 184.435 76.3276 184.324 76.3781C184.338 76.2412 184.324 76.103 184.283 75.9716C184.067 75.324 183.102 75.1587 182.929 74.5003C182.9 74.3375 182.884 74.1726 182.883 74.0072C182.826 73.4301 182.433 72.9423 182.297 72.3815C182.173 71.8639 182.268 71.2976 182.026 70.818C181.821 70.5182 181.579 70.2451 181.306 70.0052C180.98 69.6333 180.745 69.1908 180.62 68.7127C180.585 68.5799 180.552 68.4418 180.514 68.309C180.556 68.0083 180.522 67.7022 180.417 67.4175C180.17 66.8052 179.534 66.4123 179.303 65.7918C179.124 65.3095 179.203 64.708 178.864 64.3341C178.684 64.1554 178.464 64.0225 178.222 63.9466C176.982 63.4636 175.681 63.1563 174.356 63.0335C173.613 62.9657 172.795 62.9278 172.264 62.4049C171.643 61.7979 171.614 60.706 170.887 60.2372C170.248 59.8227 169.343 60.1288 168.847 60.7114C168.773 60.7971 168.704 60.8876 168.641 60.9823C168.551 60.6192 168.531 60.2419 168.584 59.8714C168.584 59.7793 168.603 59.6845 168.611 59.6005C169.835 59.2007 170.876 58.3785 171.549 57.2811C171.549 57.2811 171.549 57.2811 171.549 57.2973L171.581 57.3813C171.66 57.5791 171.784 57.7688 171.969 57.7905C172.091 57.789 172.21 57.746 172.304 57.6686C172.468 57.555 172.619 57.4242 172.754 57.2784C172.823 57.2025 172.888 57.1239 172.949 57.0427C173.074 56.8734 173.181 56.6919 173.269 56.5007C173.404 56.2132 173.495 55.9073 173.54 55.593C173.589 55.2787 173.594 54.9563 173.648 54.642C173.699 54.3987 173.765 54.1589 173.846 53.9239C173.873 53.8454 173.9 53.7668 173.925 53.6882C173.949 53.6096 173.984 53.504 174.012 53.4173C174.181 52.86 174.272 52.2818 174.282 51.6994C174.282 51.6019 174.282 51.5043 174.282 51.4068C174.273 51.0267 174.187 50.6523 174.031 50.3057C173.874 49.9591 173.65 49.6472 173.372 49.3882C172.906 49.0061 172.288 48.8462 171.947 48.3287C171.725 47.9819 171.676 47.5348 171.546 47.1284C171.405 46.642 171.131 46.2047 170.755 45.8661C170.378 45.5275 169.915 45.3012 169.416 45.2127C168.816 45.1469 168.213 45.3126 167.731 45.6761L167.693 45.7059C167.424 45.911 167.196 46.1647 167.021 46.4537C166.663 46.3551 166.335 46.1688 166.067 45.9118C165.796 45.6598 165.588 45.3428 165.314 45.0989C165.058 44.8647 164.744 44.7034 164.405 44.6319C164.065 44.5605 163.713 44.5814 163.385 44.6925C163.046 44.828 162.745 45.0419 162.505 45.3165C162.265 45.5911 162.094 45.9186 162.005 46.2722C161.856 46.8303 161.884 47.4725 161.572 47.9385C161.331 48.3016 160.935 48.4805 160.659 48.811C160.487 49.0203 160.37 49.2689 160.317 49.5345C160.285 49.683 160.269 49.8349 160.271 49.987C160.271 50.0547 160.271 50.1224 160.288 50.1875C160.288 50.1875 160.288 50.2092 160.288 50.22C160.297 50.2942 160.313 50.3676 160.334 50.4395C160.411 50.7141 160.549 50.9679 160.737 51.1819C160.916 51.3868 161.14 51.5481 161.39 51.6533C161.493 51.6933 161.598 51.7268 161.705 51.7536L162.027 51.8268L162.141 51.8539C161.752 52.5844 161.536 53.3946 161.509 54.222C161.483 55.0493 161.647 55.8716 161.989 56.6254C161.989 56.7012 161.97 56.7771 161.962 56.853C161.918 57.9199 161.965 58.9887 162.103 60.0475C162.141 60.4675 162.163 60.9309 161.905 61.2641C161.788 61.3952 161.656 61.5125 161.512 61.6137C161.659 61.424 161.808 61.237 161.959 61.0501C161.577 60.6653 160.973 60.6166 160.431 60.6545C159.382 60.7328 158.364 61.0438 157.451 61.5649C156.844 61.9144 156.221 62.3778 155.527 62.2965C155.118 62.2504 154.714 62.0255 154.316 62.1339C154.092 62.2255 153.883 62.3497 153.695 62.5024C153.547 62.6087 153.368 62.6639 153.186 62.6596C152.76 62.1366 152.102 61.7817 151.593 61.3563C151.013 60.8402 150.482 60.2715 150.008 59.6574C149.13 58.5979 148.254 57.5358 147.393 56.4655C146.667 55.5659 145.922 54.5932 145.794 53.4416C145.781 53.3274 145.775 53.2125 145.775 53.0975C145.793 52.5504 145.862 52.0061 145.981 51.4718C146.013 51.3428 146.013 51.2079 145.981 51.0789C145.9 50.808 145.588 50.7077 145.32 50.6481C145.355 50.4395 145.38 50.2254 145.393 50.0222C145.545 47.692 145.38 45.3238 145.873 43.0424C146.06 42.1645 146.366 41.2757 146.997 40.639C147.986 39.6392 149.642 39.398 150.4 38.2139C151.034 37.2277 150.782 35.8322 149.986 34.9625C149.189 34.0927 147.962 33.7378 146.794 33.7811C146.466 33.7699 146.143 33.8567 145.865 34.0304C145.605 34.2612 145.41 34.5566 145.301 34.8866L144.139 37.7127C143.802 38.4484 143.517 39.2072 143.288 39.9833C142.963 41.1701 142.89 42.4219 142.632 43.6195C142.632 44.5408 142.039 45.6896 141.714 46.5377C141.351 47.4915 140.958 48.4344 140.63 49.4071C140.548 49.651 140.264 50.3744 140.088 51.0329C140.021 51.0716 139.959 51.118 139.904 51.171C139.762 51.3524 139.634 51.5434 139.519 51.7428C139.272 52.0679 138.871 52.2413 138.6 52.5556C138.329 52.8699 138.272 53.4471 138.649 53.6042C138.726 53.6299 138.805 53.6472 138.885 53.6557C138.934 53.6599 138.983 53.668 139.031 53.6801C139.438 53.7939 139.597 54.306 139.538 54.7287C139.478 55.1514 139.267 55.5416 139.232 55.9643C139.158 56.7121 139.597 57.4084 140.02 58.0371C140.458 58.7185 140.941 59.3694 141.467 59.9852C141.849 60.4133 142.28 60.7981 142.665 61.21C144.131 62.7165 145.296 64.4777 146.612 66.1143C147.086 66.7319 147.625 67.2969 148.219 67.7996C148.607 68.1032 149.014 68.3828 149.436 68.6368L151.701 70.0729C151.958 70.2612 152.249 70.3982 152.557 70.4766C152.658 70.4902 152.76 70.4902 152.861 70.4766C152.874 70.5444 152.885 70.6094 152.901 70.6771C153.077 71.387 153.465 72.0319 153.508 72.7554C153.552 73.4788 153.487 74.2185 153.538 74.9501C153.587 75.6248 153.736 76.3049 153.774 76.9687C153.85 78.2476 153.535 79.5103 153.232 80.7621C152.774 82.5938 152.498 84.4634 151.606 86.1243C151.357 86.5822 151.064 87.0483 151.064 87.5712C151.064 87.6335 151.064 87.6986 151.081 87.7609L150.674 87.9912C150.555 88.0589 150.436 88.1267 150.327 88.1971C149.812 88.5331 149.262 88.9043 149.051 89.4842C148.88 89.9529 148.959 90.4894 148.753 90.9446C148.743 90.965 148.732 90.9849 148.72 91.0042C148.504 91.4269 148.073 91.7412 147.975 92.2046C147.902 92.5595 148.043 92.9362 147.975 93.2884C147.975 93.2884 147.975 93.2884 147.975 93.3019C147.914 93.4789 147.865 93.66 147.829 93.8439C147.826 93.9039 147.832 93.9641 147.845 94.0227C147.897 94.228 148.01 94.4124 148.17 94.551C148.268 94.6447 148.374 94.7291 148.487 94.803C148.603 94.8789 148.722 94.9494 148.845 95.0144L148.916 95.0523C149.019 95.1065 149.122 95.158 149.227 95.2068L149.298 95.2366C149.42 95.2908 149.544 95.3395 149.669 95.3829L149.756 95.41C149.853 95.4425 149.953 95.4723 150.054 95.4967L150.121 95.5184L150.184 95.5319L150.455 95.5888L150.555 95.6078C150.674 95.6276 150.796 95.6439 150.921 95.6565H151.029C151.121 95.6565 151.211 95.6701 151.3 95.6728H151.427C151.522 95.6728 151.614 95.6728 151.698 95.6728H151.796C151.923 95.6728 152.051 95.6538 152.178 95.6376H152.219C152.332 95.6213 152.446 95.6024 152.56 95.578L152.647 95.559C152.752 95.5346 152.858 95.5102 152.964 95.4777L153.021 95.4615C153.148 95.4235 153.275 95.3829 153.4 95.3341C153.831 95.1569 154.249 94.9495 154.652 94.7136C154.923 94.5646 155.194 94.4129 155.465 94.2747C155.666 94.1734 155.872 94.083 156.082 94.0037C156.595 93.7848 157.152 93.6919 157.708 93.7328C157.982 93.7701 158.254 93.8253 158.521 93.898C158.521 93.9279 158.521 93.9577 158.521 93.9875C158.741 95.288 158.959 96.5886 159.174 97.8892C159.529 97.6339 159.904 97.4082 160.296 97.2145C160.222 97.4109 160.174 97.6157 160.152 97.8242C160.136 97.9855 160.136 98.1479 160.152 98.3092C160.177 98.5666 160.231 98.8511 160.076 99.0543C159.981 99.179 159.805 99.2494 159.754 99.3903C159.716 99.5344 159.707 99.6844 159.727 99.832C159.716 100 159.644 100.159 159.526 100.28C159.408 100.4 159.25 100.474 159.082 100.488C159.159 100.706 159.161 100.944 159.087 101.163C159.013 101.382 158.867 101.57 158.673 101.696C158.559 101.751 158.454 101.82 158.358 101.902C158.266 102.022 158.203 102.162 158.177 102.311C157.819 103.653 157.082 104.864 156.055 105.798C155.67 106.101 155.318 106.445 155.007 106.823C154.814 107.115 154.655 107.429 154.532 107.757C153.81 109.524 153.077 111.292 152.332 113.06C151.92 114.049 151.519 115.054 151.389 116.119C151.064 119.04 148.463 121.517 148.951 124.416C149.049 125.14 149.341 125.824 149.796 126.396C150.338 127.049 151.151 127.423 151.964 127.727C154.053 128.54 156.256 128.984 158.451 129.431L161.897 130.138C162.573 130.294 163.26 130.403 163.951 130.464C164.783 130.52 165.636 130.442 166.446 130.653C166.948 130.783 167.427 131.024 167.945 131.051C168.389 131.076 168.937 130.981 169.199 131.344C169.462 131.707 169.259 132.187 169.508 132.509C169.909 133.021 170.887 132.509 171.324 132.992C171.443 133.177 171.534 133.379 171.595 133.59C171.661 133.721 171.753 133.837 171.866 133.932C171.892 134.085 171.903 134.24 171.898 134.395C171.842 135.024 171.711 135.645 171.508 136.243C171.183 137.343 170.858 138.444 170.535 139.546C170.412 139.935 170.321 140.334 170.264 140.738C170.244 140.935 170.244 141.132 170.264 141.329C170.321 141.928 170.665 142.545 171.237 142.741C171.68 142.858 172.152 142.8 172.554 142.578C172.941 142.376 173.305 142.13 173.638 141.846C174.238 141.392 174.765 140.85 175.201 140.237C176.556 138.21 176.117 135.468 177.068 133.227C177.699 131.732 178.929 130.518 179.338 128.941C179.434 128.641 179.445 128.32 179.371 128.014C179.2 127.472 178.623 127.163 178.084 126.968H178.06C177.617 126.81 177.164 126.681 176.705 126.581C176.591 126.556 176.474 126.537 176.358 126.518C176.1 126.309 175.895 126.041 175.759 125.738C175.738 125.577 175.695 125.419 175.632 125.269C175.589 125.205 175.531 125.151 175.463 125.114C175.395 125.076 175.319 125.055 175.242 125.053C174.971 125.025 174.608 125.123 174.312 125.101C173.708 125.058 173.307 124.465 172.765 124.191C172.223 123.917 171.635 123.985 171.058 124.026C170.852 124.054 170.642 124.041 170.44 123.988C170.2 123.877 169.98 123.726 169.79 123.541C169.457 123.281 169.067 123.103 168.653 123.019C168.239 122.936 167.811 122.95 167.403 123.061C167.144 123.166 166.869 123.228 166.59 123.245C166.062 123.215 165.688 122.744 165.298 122.386C164.23 121.408 162.71 121.151 161.415 120.509C161.217 120.435 161.051 120.293 160.949 120.108C160.8 119.739 161.136 119.371 161.439 119.119L163.666 117.268C166.105 115.241 169.153 113.716 170.286 110.743C170.404 110.345 170.587 109.969 170.828 109.63C170.915 109.526 171.017 109.435 171.129 109.359C171.621 109.04 172.218 108.923 172.795 109.034C173.498 109.191 174.164 109.482 174.757 109.89C175.727 110.477 176.67 111.109 177.588 111.787C178.497 112.436 179.362 113.146 180.176 113.911C181.598 115.266 182.782 116.872 184.107 118.333C185.432 119.793 186.947 121.156 188.787 121.855C190.627 122.554 192.851 122.525 194.431 121.351C196.254 119.996 196.84 117.574 197.3 115.352C198.316 114.371 198.622 112.878 199.118 111.559C199.43 110.722 199.828 109.933 200.164 109.099C200.565 108.118 200.879 107.104 201.194 106.094C201.55 105.079 201.792 104.027 201.915 102.959C202.045 101.271 201.592 99.4743 202.066 97.8892C202.692 97.751 203.261 97.3988 203.876 97.1929C204.792 96.8921 205.773 96.9409 206.743 96.9463H206.805C207.14 96.9819 207.476 96.9025 207.759 96.7214C208.084 96.4504 208.136 95.9871 208.152 95.5671C208.19 94.5294 208.125 93.3643 207.347 92.6923ZM168.088 46.4727C167.864 46.5281 167.633 46.5446 167.403 46.5214L168.088 46.4727Z" fill="url(#paint0_linear)"/>
<path d="M169.156 63.6132C168.828 63.8919 168.444 64.0962 168.029 64.212L166.108 64.9003C165.065 65.2742 163.976 65.6508 162.876 65.5153C162.26 65.4395 159.624 65.052 159.226 64.5724C158.619 63.83 160.746 62.738 161.472 62.1121C161.637 61.9938 161.789 61.8595 161.927 61.7111C162.198 61.3806 162.163 60.9172 162.125 60.4999C161.987 59.4429 161.94 58.3759 161.984 57.3108C162.005 57.0569 162.041 56.8044 162.092 56.5548C162.363 55.3084 163.523 55.7636 164.439 56.0942C165.541 56.4523 166.607 56.9141 167.623 57.4734C167.932 57.6328 168.201 57.8608 168.408 58.1399C168.809 58.7469 168.65 59.5435 168.585 60.3076C168.528 60.901 168.53 61.47 168.902 61.9008C169.088 62.0655 169.26 62.2469 169.414 62.4427C169.5 62.6399 169.522 62.8596 169.476 63.07C169.43 63.2804 169.318 63.4706 169.156 63.6132Z" fill="#BE6F72"/>
<path d="M142.619 44.0855C142.89 42.8852 142.949 41.6469 143.274 40.4574C143.504 39.684 143.788 38.9279 144.125 38.1949L145.32 35.4068C145.429 35.0776 145.624 34.7831 145.884 34.5533C146.162 34.3807 146.485 34.294 146.813 34.304C147.981 34.2606 149.208 34.6237 150.005 35.4827C150.801 36.3416 151.053 37.7316 150.419 38.7152C149.661 39.8992 148.005 40.1377 147.016 41.1348C146.385 41.7715 146.079 42.6576 145.892 43.5327C145.399 45.8088 145.564 48.1688 145.412 50.4936C145.363 51.217 145.222 52.0435 144.599 52.4174C144.223 52.6019 143.804 52.6833 143.385 52.6531L141.608 52.6829C141.31 52.6829 140.229 52.8699 140.031 52.645C139.684 52.2521 140.475 50.2958 140.619 49.8596C140.939 48.8922 141.332 47.9493 141.703 46.9983C142.025 46.1502 142.619 45.004 142.619 44.0855Z" fill="#BE6F72"/>
<path d="M179.32 129.209C178.91 130.775 177.68 131.994 177.049 133.487C176.098 135.723 176.526 138.457 175.182 140.478C174.746 141.092 174.219 141.635 173.619 142.09C173.286 142.373 172.922 142.617 172.535 142.819C172.133 143.04 171.661 143.099 171.218 142.981C170.646 142.786 170.302 142.169 170.245 141.573C170.225 141.377 170.225 141.18 170.245 140.985C170.302 140.581 170.393 140.183 170.516 139.795C170.841 138.699 171.166 137.6 171.489 136.5C171.691 135.904 171.822 135.285 171.879 134.658C171.914 133.975 171.481 133.086 171.665 132.449C171.749 132.162 172.063 131.908 172.207 131.666C172.411 131.319 172.568 130.947 172.673 130.558C172.895 129.802 173.047 128.995 173.513 128.358C173.817 127.98 174.173 127.647 174.57 127.369C174.863 127.112 175.206 126.919 175.578 126.803C175.938 126.739 176.308 126.757 176.661 126.854C177.121 126.952 177.574 127.081 178.016 127.239H178.041C178.583 127.434 179.157 127.735 179.328 128.282C179.411 128.586 179.408 128.907 179.32 129.209Z" fill="#3F3D56"/>
<path d="M208.149 95.8976C208.133 96.3176 208.082 96.7864 207.757 97.0492C207.473 97.2303 207.137 97.3097 206.803 97.2741H206.73C205.762 97.2741 204.779 97.2199 203.863 97.5207C203.167 97.751 202.527 98.1737 201.801 98.2577C200.801 98.3715 199.861 97.8241 198.975 97.3473C198.141 96.8978 197.284 96.4909 196.409 96.128C195.835 95.8922 194.661 95.7405 194.385 95.1119C194.29 94.8144 194.211 94.5124 194.146 94.2069C194.101 94.0703 194.046 93.9372 193.981 93.8086C193.819 93.534 193.715 93.2285 193.678 92.9117C193.679 92.5959 193.788 92.29 193.987 92.0446C194.208 91.783 194.478 91.5676 194.783 91.4109C195.087 91.2542 195.42 91.1592 195.761 91.1315C196.444 91.0785 197.131 91.1149 197.804 91.2399L204.475 92.1991C204.99 92.2723 205.508 92.3454 206.014 92.4701C206.496 92.5535 206.949 92.7525 207.337 93.0499C208.125 93.711 208.19 94.8734 208.149 95.8976Z" fill="#3F3D56"/>
<path d="M202.286 97.6317C201.473 99.3469 202.058 101.376 201.912 103.273C201.789 104.339 201.548 105.388 201.191 106.4C200.877 107.408 200.563 108.418 200.162 109.397C199.826 110.209 199.427 111.022 199.116 111.851C198.62 113.174 198.303 114.661 197.298 115.645C196.837 117.861 196.252 120.284 194.428 121.628C192.843 122.798 190.635 122.839 188.784 122.132C186.934 121.424 185.43 120.07 184.105 118.609C182.78 117.149 181.596 115.558 180.173 114.198C179.358 113.433 178.492 112.724 177.58 112.076C176.663 111.41 175.719 110.783 174.749 110.196C174.155 109.79 173.489 109.5 172.787 109.342C172.21 109.232 171.613 109.348 171.121 109.668C171.009 109.744 170.908 109.835 170.82 109.939C170.579 110.276 170.396 110.652 170.278 111.049C169.14 114.014 166.086 115.536 163.648 117.558L161.421 119.403C161.117 119.655 160.781 120.023 160.93 120.389C161.033 120.574 161.198 120.717 161.396 120.79C162.691 121.43 164.211 121.687 165.279 122.663C165.669 123.02 166.043 123.492 166.571 123.519C166.85 123.502 167.125 123.441 167.384 123.337C167.792 123.227 168.22 123.213 168.634 123.295C169.048 123.378 169.437 123.556 169.771 123.814C169.961 123.999 170.181 124.15 170.422 124.261C170.623 124.315 170.833 124.327 171.039 124.299C171.617 124.259 172.229 124.207 172.746 124.464C173.264 124.722 173.689 125.329 174.294 125.372C174.589 125.394 174.941 125.296 175.223 125.323C175.301 125.326 175.376 125.347 175.444 125.385C175.512 125.422 175.57 125.476 175.613 125.54C175.676 125.689 175.719 125.846 175.741 126.006C175.852 126.388 176.226 126.621 176.469 126.936C176.843 127.418 176.898 128.074 176.86 128.683C176.737 130.59 175.887 132.376 174.486 133.674C174.088 134.081 173.581 134.363 173.026 134.487C172.747 134.545 172.458 134.515 172.199 134.399C171.939 134.284 171.722 134.09 171.579 133.845C171.518 133.634 171.427 133.433 171.308 133.249C170.871 132.769 169.893 133.279 169.492 132.767C169.243 132.447 169.422 131.935 169.183 131.604C168.945 131.274 168.371 131.333 167.929 131.314C167.411 131.287 166.932 131.043 166.43 130.916C165.618 130.705 164.767 130.783 163.935 130.726C163.244 130.665 162.557 130.557 161.881 130.401L158.435 129.697C156.24 129.25 154.037 128.797 151.948 127.998C151.149 127.694 150.344 127.32 149.78 126.67C149.326 126.099 149.034 125.415 148.935 124.692C148.444 121.801 151.046 119.33 151.373 116.417C151.49 115.355 151.915 114.352 152.316 113.366C153.052 111.603 153.785 109.839 154.517 108.074C154.635 107.746 154.789 107.431 154.977 107.137C155.289 106.76 155.641 106.417 156.026 106.115C157.053 105.184 157.789 103.976 158.147 102.636C158.174 102.487 158.236 102.347 158.329 102.227C158.425 102.147 158.531 102.078 158.643 102.024C158.837 101.898 158.982 101.711 159.057 101.492C159.131 101.273 159.129 101.036 159.052 100.818C159.221 100.804 159.378 100.73 159.497 100.61C159.615 100.49 159.686 100.331 159.697 100.162C159.677 100.016 159.687 99.8666 159.724 99.7235C159.789 99.5826 159.952 99.5121 160.047 99.3875C160.201 99.1843 160.147 98.8998 160.123 98.6451C160.106 98.4838 160.106 98.3213 160.123 98.1601C160.182 97.5863 160.439 97.051 160.849 96.6454C161.496 96.0087 162.418 96.174 163.312 96.0222C164.204 95.8297 165.075 95.5511 165.913 95.1904C168.264 94.264 170.739 93.6915 173.259 93.4915C175.79 93.2924 178.333 93.6973 180.677 94.6729C181.018 94.811 181.34 94.9932 181.634 95.2148C181.842 95.3756 182.013 95.5799 182.135 95.8136C182.235 96.1004 182.358 96.3786 182.504 96.6454C182.794 97.041 183.341 97.1684 183.658 97.5423C183.975 97.9162 184.002 98.5475 184.265 99.0109C184.641 99.672 185.514 99.9782 185.774 100.696C185.855 100.924 185.866 101.173 185.926 101.409C186.072 102 186.511 102.466 186.898 102.932C188.319 104.631 189.228 106.698 189.521 108.893C189.608 107.519 190.532 106.302 191.689 105.544C192.001 105.34 192.361 105.116 192.423 104.747C192.502 104.281 192.049 103.866 192.079 103.392C192.112 103.161 192.206 102.942 192.35 102.758C192.866 102.01 193.433 101.297 194.046 100.626C194.38 100.26 194.753 99.8129 194.615 99.3306C194.51 98.9702 194.141 98.7589 193.938 98.4446C193.819 98.2572 193.759 98.039 193.763 97.8173C193.768 97.5956 193.838 97.3802 193.965 97.1982C194.155 96.9408 194.455 96.7538 194.548 96.4476C194.653 96.0873 194.418 95.6971 194.491 95.3259C194.59 95.0286 194.786 94.7736 195.049 94.6024C195.408 94.2751 195.817 94.0063 196.26 93.8058C196.975 93.5349 197.772 93.6351 198.531 93.7408C199.799 93.9169 201.221 94.1879 201.937 95.25C202.394 95.9139 202.627 96.9218 202.286 97.6317Z" fill="#65617D"/>
<path opacity="0.1" d="M208.149 95.8976C208.133 96.3176 208.082 96.7864 207.756 97.0492C207.473 97.2303 207.137 97.3097 206.803 97.2741H206.73C206.841 96.7105 207.526 96.3881 207.645 95.8164C207.666 95.6407 207.65 95.4628 207.599 95.2936C207.547 95.1244 207.462 94.9675 207.347 94.8328C206.767 94.0497 205.835 93.6162 204.909 93.2992C202.291 92.4016 199.486 92.1917 196.764 92.6895C196.023 92.8101 195.303 93.0316 194.623 93.3479C194.398 93.489 194.181 93.6428 193.973 93.8086C193.81 93.534 193.707 93.2285 193.669 92.9117C193.671 92.5959 193.779 92.29 193.978 92.0446C194.199 91.783 194.47 91.5676 194.775 91.4109C195.079 91.2542 195.412 91.1592 195.753 91.1315C196.436 91.0785 197.123 91.1149 197.796 91.2399L204.467 92.1991C204.982 92.2723 205.499 92.3454 206.006 92.4701C206.487 92.5535 206.941 92.7525 207.328 93.0499C208.125 93.711 208.19 94.8734 208.149 95.8976Z" fill="black"/>
<path opacity="0.1" d="M179.32 129.209C178.91 130.775 177.68 131.994 177.049 133.487C176.098 135.723 176.526 138.457 175.182 140.478C174.746 141.092 174.219 141.635 173.619 142.09C173.286 142.373 172.922 142.617 172.535 142.819C172.133 143.04 171.661 143.099 171.218 142.981C170.646 142.786 170.302 142.169 170.245 141.573C170.225 141.377 170.225 141.18 170.245 140.985L170.261 141.028C170.497 141.597 170.882 142.193 171.489 142.293C171.717 142.31 171.945 142.279 172.161 142.203C172.376 142.127 172.574 142.007 172.741 141.852C173.635 141.134 174.155 140.063 174.651 139.031C175.039 138.287 175.346 137.503 175.567 136.693C175.675 136.232 175.727 135.761 175.838 135.3C176.353 133.062 178.106 131.236 178.493 128.968C178.525 128.812 178.532 128.652 178.515 128.493C178.464 128.287 178.385 128.088 178.282 127.903C178.188 127.693 178.118 127.473 178.076 127.247C178.618 127.442 179.192 127.743 179.363 128.29C179.433 128.595 179.418 128.912 179.32 129.209Z" fill="black"/>
<path opacity="0.1" d="M175.228 125.323C174.977 125.979 174.555 126.555 174.006 126.992C173.235 127.58 172.332 127.971 171.375 128.13C170.93 128.244 170.463 128.238 170.02 128.114C169.419 127.906 168.985 127.342 168.37 127.179C167.931 127.06 167.46 127.166 167.015 127.101C166.216 126.99 165.596 126.38 164.951 125.892C162.975 124.407 160.382 123.928 158.407 122.443C158.319 122.389 158.246 122.314 158.196 122.224C158.158 122.126 158.144 122.021 158.155 121.917C158.162 121.017 158.365 120.128 158.748 119.314C159.063 118.745 159.437 118.212 159.865 117.723C161.634 115.555 163.412 113.371 165.531 111.543C166.419 110.776 167.389 110.06 168.511 109.714C169.134 109.521 170.364 109.34 171.123 109.665C171.011 109.741 170.91 109.832 170.822 109.936C170.581 110.273 170.398 110.649 170.28 111.047C169.14 114.014 166.086 115.536 163.647 117.558L161.42 119.403C161.117 119.655 160.781 120.023 160.93 120.389C161.032 120.574 161.197 120.716 161.396 120.79C162.691 121.43 164.211 121.687 165.279 122.663C165.669 123.02 166.043 123.492 166.571 123.519C166.85 123.502 167.124 123.441 167.384 123.337C167.792 123.227 168.219 123.213 168.633 123.295C169.048 123.378 169.437 123.556 169.771 123.814C169.961 123.999 170.181 124.15 170.421 124.261C170.623 124.314 170.833 124.327 171.039 124.299C171.616 124.258 172.229 124.207 172.746 124.464C173.264 124.722 173.689 125.329 174.293 125.372C174.594 125.394 174.946 125.291 175.228 125.323Z" fill="black"/>
<path d="M150.308 88.5491C149.794 88.8797 149.246 89.2536 149.035 89.8281C148.861 90.2968 148.943 90.8333 148.734 91.2885C148.525 91.7437 148.057 92.0607 147.954 92.5485C147.881 92.9034 148.024 93.2773 147.954 93.6323C147.892 93.8169 147.843 94.0051 147.805 94.1959C147.778 94.5996 148.124 94.9274 148.463 95.1523C149.184 95.6213 150.005 95.9147 150.86 96.0088C151.715 96.1029 152.581 95.9952 153.386 95.6942C154.11 95.4233 154.763 94.9816 155.457 94.6348C156.133 94.2453 156.907 94.0573 157.686 94.0929C158.134 94.1417 158.562 94.3042 159.009 94.3639C159.23 94.4075 159.458 94.3967 159.673 94.3325C159.889 94.2683 160.086 94.1526 160.247 93.9954C160.385 93.8047 160.478 93.5851 160.518 93.3532C160.895 91.8656 160.724 90.2887 160.366 88.793C160.009 87.2973 159.467 85.8586 159.085 84.371C158.814 83.2682 158.605 82.1383 158.152 81.0952C157.7 80.052 156.939 79.082 155.874 78.6836C155.79 78.6424 155.695 78.63 155.603 78.6484C155.535 78.677 155.474 78.7216 155.427 78.7785C154.584 79.6711 153.95 80.7389 153.568 81.9053C153.143 83.2032 153.026 84.5796 152.636 85.8829C152.468 86.4249 152.251 87.151 151.823 87.5656C151.395 87.9801 150.793 88.2375 150.308 88.5491Z" fill="#3F3D56"/>
<path opacity="0.1" d="M160.526 93.3452C160.481 93.5779 160.383 93.7973 160.242 93.9873C160.081 94.1451 159.884 94.261 159.668 94.3248C159.452 94.3885 159.224 94.3983 159.003 94.3531C158.559 94.2989 158.131 94.1336 157.684 94.0822C156.904 94.0461 156.13 94.2341 155.454 94.6241C154.76 94.9709 154.099 95.4017 153.381 95.6808C152.331 96.0791 151.183 96.1444 150.094 95.8678C149.516 95.7224 148.966 95.4806 148.469 95.1524C148.127 94.9302 147.783 94.6105 147.81 94.196C147.848 94.0061 147.898 93.8187 147.959 93.6351C148.03 93.2801 147.889 92.9062 147.959 92.5513C148.062 92.0635 148.534 91.7384 148.739 91.2886C148.945 90.8388 148.867 90.2996 149.038 89.8309C149.249 89.2537 149.799 88.8825 150.314 88.5492C150.829 88.216 151.441 87.9613 151.853 87.5575C151.906 87.4947 151.954 87.4276 151.996 87.357C152.293 86.899 152.511 86.3943 152.641 85.8641C153.04 84.5581 153.148 83.1843 153.571 81.8837C153.954 80.7182 154.59 79.6515 155.432 78.7596C155.477 78.7015 155.537 78.6565 155.605 78.6296C155.697 78.6109 155.792 78.6223 155.876 78.6621C156.939 79.0631 157.7 80.0331 158.155 81.0763C158.61 82.1195 158.803 83.2439 159.087 84.3494C159.467 85.837 160.011 87.2812 160.369 88.7741C160.727 90.2671 160.903 91.8549 160.526 93.3452Z" fill="black"/>
<path opacity="0.1" d="M168.584 60.2994C167.31 60.7042 165.932 60.6238 164.713 60.0736C163.495 59.5234 162.523 58.5423 161.984 57.3189C162.005 57.0649 162.041 56.8125 162.092 56.5629C162.363 55.3165 163.523 55.7717 164.439 56.1023C165.541 56.4604 166.607 56.9222 167.622 57.4814C167.932 57.6409 168.201 57.8688 168.408 58.148C168.809 58.7468 168.649 59.5434 168.584 60.2994Z" fill="black"/>
<path d="M166.948 60.2833C169.941 60.2833 172.367 57.8571 172.367 54.8642C172.367 51.8713 169.941 49.4451 166.948 49.4451C163.955 49.4451 161.529 51.8713 161.529 54.8642C161.529 57.8571 163.955 60.2833 166.948 60.2833Z" fill="#BE6F72"/>
<path opacity="0.1" d="M181.652 95.3612C181.652 95.811 181.043 95.9546 180.59 95.9302C178.965 95.8354 177.374 95.3883 175.765 95.5238C173.73 95.708 171.86 96.8325 169.82 96.9354C169.034 96.9761 168.235 96.8596 167.46 97.0032C166.457 97.1901 165.563 97.7998 164.542 97.8865C163.656 97.9623 162.78 97.6291 161.894 97.6643C161.275 97.7012 160.671 97.8732 160.125 98.1683C160.184 97.5945 160.441 97.0592 160.851 96.6536C161.499 96.0169 162.42 96.1822 163.314 96.0304C164.206 95.8379 165.077 95.5593 165.915 95.1986C168.266 94.2722 170.742 93.6997 173.261 93.4997C175.791 93.2985 178.333 93.7006 180.677 94.6729C181.018 94.8111 181.34 94.9933 181.633 95.2149C181.648 95.2622 181.655 95.3117 181.652 95.3612Z" fill="black"/>
<path d="M164.441 64.7594L162.247 63.9466L161.32 63.6052C160.942 63.4469 160.545 63.3412 160.139 63.2909C159.076 63.2096 158.077 63.9168 157.51 64.8191C156.944 65.7213 156.73 66.797 156.548 67.8456C156.299 69.2799 156.088 70.7196 155.914 72.1647C155.728 73.4696 155.633 74.7861 155.63 76.1044C155.692 79.4588 156.402 82.7672 157.182 86.0322C157.565 87.4798 157.853 88.9505 158.047 90.4352C158.112 91.0476 158.142 91.6626 158.207 92.2777C158.277 92.9686 158.391 93.6514 158.505 94.337L159.158 98.2306C159.971 97.6535 160.895 97.1468 161.894 97.117C162.78 97.0845 163.658 97.415 164.542 97.3392C165.558 97.2552 166.457 96.6455 167.46 96.4585C168.235 96.3149 169.034 96.4287 169.823 96.3908C171.86 96.2878 173.732 95.1607 175.765 94.9791C177.377 94.8328 178.978 95.288 180.593 95.3829C181.043 95.41 181.652 95.2663 181.652 94.8138C181.652 94.4995 181.338 94.2909 181.065 94.1338C179.775 93.357 178.547 92.481 177.393 91.5136C176.325 90.6682 175.242 89.8012 174.507 88.6577C172.738 85.9075 173.345 82.1873 171.836 79.2854C170.608 76.9281 171.836 73.8392 171.836 71.1811C171.836 69.8561 171.836 68.5149 171.524 67.2278C171.329 66.508 171.087 65.802 170.798 65.1144L169.744 62.4455C169.722 62.3675 169.679 62.2971 169.619 62.2423C169.548 62.1934 169.464 62.1679 169.378 62.1691C168.745 62.1312 168.121 62.3312 167.628 62.73C167.132 63.1337 166.815 63.7136 166.327 64.1335C165.793 64.5969 165.105 65.0033 164.441 64.7594Z" fill="#E3E8F4"/>
<path d="M167.983 63.2203C168.156 62.4779 168.343 61.7057 168.839 61.1258C169.335 60.546 170.24 60.2398 170.879 60.6544C171.606 61.1258 171.635 62.2151 172.256 62.822C172.798 63.3422 173.611 63.3829 174.348 63.4506C175.673 63.5712 176.974 63.8777 178.214 64.361C178.456 64.436 178.676 64.5679 178.856 64.7458C179.195 65.1305 179.127 65.7212 179.295 66.2008C179.526 66.8186 180.162 67.2115 180.409 67.8266C180.68 68.5094 180.409 69.2735 180.181 69.9752C179.772 71.2352 179.515 72.5439 179.116 73.8093C178.718 75.0746 178.152 76.321 177.22 77.2748C176.808 77.6975 176.196 78.0876 175.654 77.8356L175.445 79.3395C175.384 79.6572 175.384 79.9836 175.445 80.3013C175.477 80.4603 175.552 80.6072 175.663 80.7251C175.775 80.843 175.917 80.9272 176.074 80.9679C176.114 81.2009 176.361 81.312 176.561 81.4394C176.709 81.5406 176.836 81.6702 176.933 81.8206C177.031 81.9711 177.098 82.1394 177.13 82.3158C177.162 82.4922 177.158 82.6733 177.12 82.8484C177.081 83.0235 177.009 83.1893 176.905 83.3361C176.735 83.5664 176.483 83.7479 176.402 84.0216C176.28 84.4172 176.569 84.8344 176.922 85.0512C177.274 85.268 177.689 85.3682 178.046 85.5769C178.789 86.005 179.187 86.8476 179.442 87.6659C179.631 88.2837 179.788 88.953 180.254 89.4027C180.433 89.5735 180.647 89.7035 180.818 89.8823C181.114 90.2314 181.284 90.6691 181.303 91.126C181.377 91.6924 181.253 92.2669 180.951 92.7518C180.409 93.5267 179.398 93.757 178.512 94.1065C177.073 94.6972 175.889 95.754 174.621 96.6535C174.105 97.0695 173.496 97.3556 172.847 97.4881C171.969 97.6046 171.104 97.2171 170.221 97.1819C169.693 97.1868 169.167 97.2559 168.655 97.3878L167.029 97.7401C167.116 96.4801 166.422 95.2175 166.035 94.0171C165.303 91.7574 165.168 89.3404 165.341 86.9723C165.515 84.6041 165.997 82.2685 166.474 79.9437C166.807 78.318 166.774 76.6191 167.287 75.0394C167.766 73.5193 168.452 72.0589 168.704 70.4765C169.115 67.916 167.403 65.7456 167.983 63.2203Z" fill="#3F3D56"/>
<path d="M180.309 68.2304C180.458 68.5058 180.563 68.8029 180.62 69.111C180.746 69.5883 180.98 70.0299 181.306 70.4008C181.578 70.6412 181.82 70.9142 182.027 71.2136C182.276 71.6851 182.181 72.2595 182.298 72.7743C182.433 73.3352 182.826 73.8229 182.883 74.4001C182.884 74.5655 182.9 74.7304 182.929 74.8932C183.105 75.5489 184.07 75.7061 184.284 76.3618C184.427 76.7872 184.181 77.2505 184.227 77.6976C184.26 77.8359 184.269 77.9791 184.251 78.1203C184.19 78.28 184.082 78.4177 183.942 78.5159C183.045 79.3726 182.425 80.4773 182.159 81.6888C181.898 82.8936 181.761 84.1221 181.75 85.3548L180.691 83.954C180.579 83.784 180.435 83.6369 180.268 83.5205C180.133 83.4392 179.975 83.3985 179.837 83.3172C179.436 83.0896 179.279 82.6073 179.125 82.1738C178.696 80.9737 178.053 79.8612 177.228 78.8898C176.797 78.3831 176.296 77.8737 176.201 77.2153C176.173 76.9129 176.189 76.6079 176.25 76.3103C176.521 74.5356 176.811 72.7175 177.675 71.1432C178.079 70.4062 178.602 69.7396 178.989 68.9918C179.249 68.496 179.615 67.2062 180.309 68.2304Z" fill="#3F3D56"/>
<path d="M153.579 69.9346C153.584 70.1627 153.526 70.3877 153.411 70.5848C153.307 70.7049 153.172 70.7937 153.021 70.8416C152.87 70.8894 152.709 70.8944 152.555 70.8558C152.246 70.7784 151.956 70.6422 151.699 70.4548C150.944 69.9779 150.188 69.5001 149.433 69.0214C149.012 68.7674 148.606 68.4887 148.217 68.1869C147.622 67.6852 147.084 67.1211 146.61 66.5043C145.293 64.8785 144.128 63.1146 142.662 61.6271C142.264 61.2206 141.849 60.8304 141.465 60.405C140.939 59.7901 140.455 59.1401 140.018 58.4596C139.595 57.8337 139.156 57.14 139.229 56.3922C139.273 55.9695 139.476 55.5793 139.535 55.1593C139.595 54.7394 139.435 54.2272 139.029 54.1134C138.981 54.1014 138.932 54.0932 138.882 54.0891C138.802 54.0806 138.723 54.0633 138.647 54.0376C138.27 53.8804 138.327 53.2979 138.598 52.9917C138.869 52.6855 139.27 52.5148 139.516 52.1788C139.631 51.9795 139.76 51.7884 139.901 51.6071C140.083 51.4515 140.299 51.3427 140.532 51.2901C142.095 50.8295 143.749 50.7671 145.342 51.1086C145.613 51.1682 145.922 51.2765 146.003 51.5394C146.036 51.6674 146.036 51.8015 146.003 51.9295C145.884 52.4638 145.815 53.0081 145.797 53.5553C145.797 53.6694 145.803 53.7834 145.816 53.8967C145.943 55.0455 146.689 56.0183 147.415 56.9151C148.276 57.9827 149.152 59.0421 150.029 60.0989C150.504 60.7112 151.035 61.2781 151.615 61.7923C152.156 62.2421 152.858 62.6052 153.281 63.1823C153.625 63.6484 153.514 64.2851 153.552 64.846C153.678 66.5395 153.687 68.2398 153.579 69.9346Z" fill="#3F3D56"/>
<path d="M187.99 81.2389C188.258 80.9787 188.499 80.6928 188.711 80.3853C188.939 80.0044 189.121 79.5978 189.253 79.1742L190.825 74.717C191.074 74.0125 191.323 73.3053 191.637 72.6198C191.963 71.88 192.347 71.1674 192.702 70.4521C193.615 68.5696 194.321 66.5936 194.808 64.5588C194.893 64.2792 194.922 63.9853 194.892 63.6945C194.816 63.2257 194.461 62.8599 194.122 62.5267C193.782 62.1588 193.393 61.838 192.968 61.5729C192.754 61.44 192.516 61.351 192.268 61.311C192.019 61.271 191.766 61.2808 191.521 61.3399C190.827 61.5431 190.391 62.253 190.231 62.9656C190.071 63.6782 190.131 64.4071 190.063 65.1333C189.966 66.1737 189.608 67.179 189.521 68.2221C189.475 68.8264 189.521 69.436 189.448 70.0375C189.315 70.8275 189.039 71.5867 188.635 72.2784C187.755 73.9261 186.565 75.3888 185.132 76.5866C184.739 76.8765 184.386 77.2162 184.08 77.5972C183.826 77.9783 183.653 78.4083 183.574 78.8599C183.394 79.5474 183.472 80.2771 183.793 80.911C184.235 81.6643 185.083 81.9948 185.893 82.1628C186.988 82.3904 187.24 82.0165 187.99 81.2389Z" fill="#BE6F72"/>
<path d="M166.981 47.0118C167.214 46.5735 167.571 46.2135 168.008 45.9769C168.444 45.7403 168.941 45.6376 169.435 45.6814C169.934 45.7696 170.397 45.9956 170.773 46.3337C171.15 46.6717 171.424 47.1085 171.565 47.5944C171.692 47.9981 171.744 48.4452 171.966 48.792C172.302 49.3149 172.925 49.4667 173.391 49.846C173.67 50.1045 173.894 50.416 174.05 50.7621C174.206 51.1083 174.292 51.4822 174.302 51.8619C174.328 52.6375 174.205 53.4109 173.941 54.1406C173.829 54.452 173.739 54.7707 173.67 55.0944C173.616 55.4087 173.611 55.7284 173.562 56.0427C173.502 56.4503 173.361 56.8417 173.147 57.194C172.934 57.5462 172.652 57.8522 172.318 58.0939C172.223 58.1714 172.105 58.2143 171.982 58.2158C171.771 58.1914 171.641 57.9449 171.562 57.7227C171.132 56.479 171.235 54.9589 170.441 53.9672C170.079 53.5672 169.643 53.2422 169.156 53.0108C168.958 52.8827 168.734 52.7987 168.501 52.7642C168.157 52.7827 167.827 52.9034 167.552 53.111C166.98 53.4946 166.346 53.7752 165.677 53.9401C165.344 54.0192 164.997 54.0227 164.661 53.9505C164.326 53.8783 164.011 53.7322 163.74 53.5229C163.366 53.214 163.092 52.7506 162.678 52.5095C162.263 52.2683 161.83 52.2819 161.421 52.1166C161.16 52.0057 160.928 51.8367 160.742 51.6226C160.557 51.4085 160.422 51.1548 160.35 50.8809C160.277 50.607 160.268 50.3202 160.323 50.0422C160.378 49.7643 160.496 49.5025 160.667 49.277C160.938 48.9518 161.339 48.7676 161.58 48.4072C161.892 47.9412 161.865 47.3017 162.014 46.7435C162.102 46.3904 162.273 46.0634 162.513 45.7896C162.753 45.5158 163.055 45.3032 163.393 45.1693C163.721 45.0578 164.074 45.0365 164.413 45.1075C164.752 45.1785 165.066 45.3393 165.322 45.573C165.593 45.8169 165.81 46.1312 166.076 46.3859C166.338 46.6368 166.659 46.8179 167.009 46.9126C167.359 47.0073 167.728 47.0125 168.081 46.9278" fill="#3F3D56"/>
<path opacity="0.1" d="M171.435 86.8938C171.277 87.0343 171.166 87.2191 171.114 87.424C171.063 87.6289 171.075 87.8445 171.148 88.0427C171.208 88.17 174.004 87.6308 174.299 87.5902C175.036 87.4845 176.329 87.536 176.824 86.8613C177.708 85.6664 174.971 85.932 174.47 85.9753C173.516 86.0566 172.161 86.1867 171.435 86.8938Z" fill="black"/>
<path d="M145.998 51.9404C145.878 52.4746 145.809 53.0189 145.792 53.5661C144.979 53.7314 144.134 53.4604 143.353 53.1895L141.112 52.4254C140.976 52.3383 140.812 52.3063 140.653 52.336C140.494 52.3657 140.352 52.4548 140.256 52.5853C139.896 52.9592 139.4 53.6691 138.901 54.0891C138.821 54.0806 138.742 54.0633 138.666 54.0376C138.289 53.8804 138.346 53.2979 138.617 52.9917C138.888 52.6855 139.289 52.5148 139.535 52.1788C139.65 51.9795 139.779 51.7884 139.92 51.6071C140.102 51.4515 140.318 51.3427 140.552 51.2901C142.114 50.8295 143.768 50.7671 145.361 51.1086C145.632 51.1682 145.941 51.2765 146.022 51.5394C146.049 51.6729 146.04 51.811 145.998 51.9404Z" fill="#3F3D56"/>
<path opacity="0.1" d="M145.998 51.9404C145.878 52.4746 145.809 53.0189 145.792 53.5661C144.979 53.7314 144.134 53.4604 143.353 53.1895L141.112 52.4254C140.976 52.3383 140.812 52.3063 140.653 52.336C140.494 52.3657 140.352 52.4548 140.256 52.5853C139.896 52.9592 139.4 53.6691 138.901 54.0891C138.821 54.0806 138.742 54.0633 138.666 54.0376C138.289 53.8804 138.346 53.2979 138.617 52.9917C138.888 52.6855 139.289 52.5148 139.535 52.1788C139.65 51.9795 139.779 51.7884 139.92 51.6071C140.102 51.4515 140.318 51.3427 140.552 51.2901C142.114 50.8295 143.768 50.7671 145.361 51.1086C145.632 51.1682 145.941 51.2765 146.022 51.5394C146.049 51.6729 146.04 51.811 145.998 51.9404Z" fill="black"/>
<path opacity="0.1" d="M166.496 103.381C166.886 103.512 167.308 103.701 167.441 104.091L164.304 103.295L162.678 102.88C162.391 102.807 161.361 102.723 161.171 102.498C160.9 102.168 161.862 102.395 162.036 102.42C162.561 102.498 163.087 102.579 163.61 102.674C164.596 102.85 165.545 103.14 166.496 103.381Z" fill="black"/>
<path opacity="0.1" d="M167.712 106.159C167.441 105.977 166.664 105.999 166.33 105.92C165.843 105.804 165.363 105.649 164.883 105.5C163.911 105.183 162.946 104.823 161.946 104.59C161.762 104.549 161.133 104.538 161.163 104.305C161.193 104.072 161.792 103.991 161.941 103.98C162.827 103.915 163.932 104.33 164.756 104.625C165.806 105.001 166.8 105.517 167.712 106.159Z" fill="black"/>
<path opacity="0.1" d="M165.723 100.905C164.729 100.634 163.826 100.016 162.802 99.897C162.535 99.9071 162.273 99.8269 162.057 99.6694C161.937 99.551 161.853 99.4005 161.816 99.2358C162.501 99.2006 163.298 99.4905 163.921 99.7642C164.264 99.9113 164.594 100.087 164.908 100.29C165.135 100.428 165.477 100.826 165.723 100.905Z" fill="black"/>
<path d="M184.679 76.6436C184.511 77.7701 184.754 78.9194 185.365 79.8812C185.975 80.8431 186.911 81.553 188.001 81.8811C187.868 82.5233 187.205 82.8782 186.736 83.3362C186.075 83.9783 185.733 84.9402 184.953 85.4279C184.083 85.9699 182.964 85.7585 181.972 85.5309C181.882 85.5208 181.799 85.4773 181.739 85.409C181.719 85.3765 181.704 85.3408 181.696 85.3033C181.368 84.103 181.154 82.8213 181.49 81.6183C181.761 80.5941 182.411 79.7216 182.932 78.8166C183.452 77.9116 183.501 76.9416 184.679 76.6436Z" fill="#3F3D56"/>
<path d="M160.453 61.1068C159.404 61.1831 158.386 61.4933 157.473 62.0145C156.866 62.3613 156.242 62.8274 155.549 62.7434C155.14 62.6973 154.736 62.4724 154.338 62.5808C154.113 62.6713 153.904 62.7956 153.717 62.9493C153.622 63.0248 153.51 63.0744 153.39 63.0934C153.27 63.1124 153.148 63.1001 153.034 63.0577L152.763 66.8077C152.66 68.2329 152.56 69.688 152.901 71.078C153.078 71.7879 153.465 72.4327 153.508 73.1535C153.552 73.8742 153.487 74.6139 153.538 75.3428C153.587 76.0175 153.736 76.6813 153.774 77.356C153.85 78.6295 153.536 79.8922 153.232 81.1304C152.774 82.9567 152.498 84.8235 151.606 86.4764C151.357 86.9343 151.064 87.4003 151.064 87.9206C151.064 87.9856 151.064 88.0479 151.081 88.1102C150.81 88.2593 150.558 88.4002 150.327 88.5465C149.813 88.8798 149.263 89.251 149.051 89.8281C148.881 90.2969 148.959 90.8333 148.753 91.2858C148.547 91.7383 148.076 92.0608 147.973 92.5485C147.9 92.9034 148.041 93.2774 147.973 93.6323C147.911 93.816 147.862 94.0033 147.824 94.1932C147.797 94.5996 148.141 94.9275 148.482 95.1497C148.98 95.4778 149.53 95.7197 150.108 95.865L151.726 89.4433C153.2 86.7165 154.427 83.8627 155.392 80.9164C155.667 79.9533 156.022 79.0144 156.451 78.1093C156.758 77.5972 157.029 77.0649 157.264 76.516C157.51 75.8332 157.535 75.0935 157.654 74.3728C157.796 73.5316 158.009 72.704 158.291 71.899C158.583 71.0292 158.922 70.1621 158.982 69.249C159.071 67.943 158.597 66.5638 159.101 65.3554C159.315 64.9031 159.593 64.4841 159.927 64.1117C160.626 63.2555 161.263 62.3586 161.962 61.5024C161.599 61.1149 160.995 61.0743 160.453 61.1068Z" fill="#3F3D56"/>
<g opacity="0.1">
<path opacity="0.1" d="M168.089 46.1204L167.75 46.1447L167.712 46.1718C167.839 46.1667 167.965 46.1494 168.089 46.1204Z" fill="black"/>
<path opacity="0.1" d="M174.288 51.7455C174.231 52.2842 174.115 52.8149 173.941 53.3279C173.829 53.6393 173.738 53.9579 173.67 54.2817C173.616 54.596 173.61 54.9157 173.562 55.23C173.502 55.6375 173.361 56.029 173.147 56.3812C172.933 56.7335 172.652 57.0395 172.318 57.2811C172.223 57.3586 172.105 57.4016 171.982 57.4031C171.771 57.3787 171.641 57.1321 171.562 56.9099C171.131 55.6662 171.234 54.1462 170.44 53.1545C170.079 52.7544 169.643 52.4294 169.156 52.198C168.957 52.07 168.734 51.9859 168.5 51.9514C168.157 51.9699 167.826 52.0907 167.552 52.2983C166.98 52.6819 166.345 52.9625 165.677 53.1274C165.343 53.2064 164.996 53.21 164.661 53.1378C164.326 53.0656 164.011 52.9195 163.74 52.7101C163.366 52.4012 163.092 51.9379 162.677 51.6967C162.263 51.4556 161.829 51.4691 161.42 51.3039C161.165 51.1947 160.937 51.0294 160.754 50.8202C160.571 50.611 160.437 50.3632 160.363 50.0954C160.354 50.0616 160.347 50.0272 160.342 49.9924C160.274 50.2949 160.281 50.6093 160.363 50.9083C160.437 51.1761 160.571 51.4238 160.754 51.633C160.937 51.8422 161.165 52.0076 161.42 52.1167C161.829 52.282 162.29 52.2847 162.677 52.5096C163.065 52.7345 163.366 53.2141 163.74 53.523C164.011 53.7324 164.326 53.8785 164.661 53.9507C164.996 54.0228 165.343 54.0193 165.677 53.9403C166.345 53.7753 166.98 53.4947 167.552 53.1111C167.826 52.9036 168.157 52.7828 168.5 52.7643C168.734 52.7988 168.957 52.8829 169.156 53.0109C169.637 53.2468 170.066 53.5745 170.421 53.9755C171.215 54.9672 171.112 56.4872 171.543 57.7309C171.622 57.9558 171.752 58.1997 171.963 58.2241C172.093 58.2247 172.219 58.1786 172.318 58.094C172.653 57.8517 172.936 57.5445 173.15 57.1908C173.364 56.837 173.505 56.4439 173.564 56.0347C173.613 55.7204 173.619 55.4007 173.673 55.0864C173.741 54.7627 173.832 54.444 173.944 54.1326C174.208 53.4029 174.33 52.6295 174.304 51.8539C174.299 51.8214 174.293 51.7834 174.288 51.7455Z" fill="black"/>
</g>
<circle cx="107.831" cy="108.421" r="55.5459" fill="#50B043"/>
<path d="M59.9455 95.8348C59.3196 95.6262 55.6346 92.7107 55.3556 91.3911C55.0765 90.0716 57.3037 77.7783 57.3037 77.7783C57.3037 77.7783 57.0978 77.7783 56.7618 77.7377V77.5399L57.2197 61.3909C57.2197 61.3909 59.0975 50.5527 55.5506 51.184C52.0038 51.8153 54.2284 61.3909 54.2284 61.3909C54.2284 61.3909 53.8247 66.2519 53.5401 67.7096C53.2692 69.1159 52.0282 74.8439 52.8736 76.624C52.9046 76.6873 52.9389 76.7488 52.9766 76.8083C52.9766 76.8083 53.1175 82.9183 51.5866 83.7529C50.1261 84.5468 49.5192 88.5434 49.4677 88.901L49.3891 88.8685C48.9531 88.5957 48.5702 88.2459 48.2592 87.8362C48.2267 87.7955 48.2023 87.7522 48.1725 87.7088C49.1694 86.5873 49.7067 85.1311 49.6771 83.6308C49.6474 82.1306 49.0531 80.6967 48.0127 79.6154C47.5289 79.1129 46.9613 78.6985 46.3354 78.3907C46.3172 77.8729 46.1947 77.3642 45.9751 76.895C45.2706 75.3885 41.3688 73.4186 38.5969 73.3726C37.318 73.3346 36.2694 73.6977 35.8874 74.6976C35.6923 75.2042 35.7519 75.7814 35.6706 76.307C35.5081 77.3909 34.8117 78.2389 33.9175 78.9136C33.5565 78.5106 33.1662 78.1347 32.7497 77.7892C31.8447 77.0955 30.0402 74.8086 30.0402 74.8086C30.0402 74.8086 24.407 68.975 23.9897 67.3763C23.5725 65.7777 17.9447 56.1777 16.6929 57.8495C15.4411 59.5213 21.0038 66.8073 21.0038 66.8073C21.0038 66.8073 22.0605 69.4546 22.8734 70.3487C23.6863 71.2429 29.9182 80.2928 29.9182 80.2928L30.2163 80.9106C28.8994 81.6042 27.6964 82.4875 27.271 83.864C26.6478 85.8907 28.0107 87.9283 28.9536 89.825C30.7907 93.5263 31.0535 98.2463 28.6827 101.628C26.5584 104.614 22.8734 106.034 19.4241 107.275C21.0899 108.583 23.1594 109.27 25.2768 109.217C24.4802 111.526 21.6568 112.29 19.2507 112.718C20.5134 113.932 22.3206 114.374 24.0548 114.642C24.9041 114.786 25.7646 114.854 26.6261 114.845H26.8375L27.0488 114.829C27.3425 114.809 27.6348 114.772 27.924 114.718C29.1758 114.463 30.3924 113.78 31.0319 112.675C31.5738 111.729 31.7634 110.439 32.747 109.965C33.0031 109.85 33.2791 109.784 33.5599 109.773H33.5301C33.7143 109.773 33.904 109.773 34.0882 109.773L38.1878 109.813C38.3585 109.813 38.5346 109.813 38.7108 109.813C39.8677 109.786 41.1033 109.586 41.6913 108.629C41.9331 108.165 42.0604 107.649 42.0625 107.126C42.1492 105.828 42.0625 104.492 42.0977 103.183C42.4472 105.565 42.813 109.277 41.9432 110.648C41.2366 111.687 40.3802 112.615 39.4017 113.404C39.1556 113.61 38.9305 113.841 38.7297 114.092C38.5969 114.187 38.5184 114.238 38.5184 114.238L38.4344 114.49C38.1255 114.958 37.9017 115.478 37.7732 116.024C37.7259 116.164 37.7084 116.313 37.7218 116.46C37.8166 116.652 37.0444 117.446 37.2693 117.779C35.3401 120.042 34.9743 123.47 34.9743 123.47L31.4518 128.818C29.6419 133.574 26.9323 134.061 26.9323 134.061C26.9323 134.061 20.5676 129.791 20.3941 129.582C20.2207 129.374 17.7875 128.331 17.7875 128.331C17.5007 127.827 17.0627 127.427 16.5357 127.187C15.7012 126.84 15.6307 125.561 15.6307 125.561C15.5278 122.54 13.753 122.31 13.753 122.31C12.3224 122.188 11.2304 122.443 10.3905 122.909L10.1358 122.928C8.90562 123.028 7.42621 123.139 5.80047 123.247C1.27822 123.545 0.202526 126.474 0.202526 126.474C0.202526 126.474 -0.352933 127.1 0.375937 127.778C1.10481 128.455 5.77066 127.778 5.96846 127.762C5.61287 127.8 5.25327 127.775 4.90632 127.688C5.64061 127.661 6.65127 127.634 7.51291 127.634H7.72155C7.66731 128.091 7.64106 128.551 7.64297 129.011C7.64297 129.878 10.0409 130.433 10.0409 130.433L17.3432 136.936C17.3432 136.936 21.9332 138.987 24.8541 141.938C27.775 144.889 30.3572 142.342 30.3572 142.342C33.4488 141.578 42.3443 130.823 42.3524 130.812C42.3524 131.127 42.5394 141.586 42.8943 143.686C42.9084 143.792 42.9348 143.897 42.9729 143.997C43.3901 144.899 42.832 147.365 42.5908 148.406C42.437 149.276 42.378 150.161 42.4147 151.045C42.4147 151.045 39.0792 163.78 39.3556 164.899C39.632 166.018 37.5483 171.217 37.5483 171.217V175.553L37.9114 175.534C37.8642 175.604 37.8208 175.676 37.7814 175.75L37.757 175.797C37.757 175.797 39.9815 176.282 41.4772 176.143C42.9729 176.005 45.5415 177.295 45.5415 177.295C45.5415 177.295 46.4113 177.707 49.0883 177.88C51.7654 178.054 51.7654 176.699 51.7654 176.699C51.4592 174.854 47.2296 174.236 47.0995 174.217C46.7581 174.003 46.4384 173.77 46.1756 173.569L46.1214 173.526C46.1391 173.485 46.1545 173.444 46.1674 173.401C46.6199 171.559 44.1163 170.759 44.1163 170.759V170.31C45.742 169.475 46.0645 163.747 46.0645 163.747C46.0645 163.747 48.5031 156.664 48.8445 155.483C49.1859 154.302 48.8445 152.532 48.8445 152.532L49.0883 151.004C49.0883 151.004 49.6113 149.964 49.6113 149.755C49.679 149.226 49.8825 148.724 50.202 148.297C50.584 147.845 49.7847 146.769 49.7847 146.769L50.4811 144.964V142.984L52.1068 135.798C52.1068 135.798 53.8111 127.428 53.2204 124.689C52.6297 121.95 53.9168 120.557 53.9168 120.557C53.8008 120.618 53.6814 120.672 53.5591 120.719C53.7218 120.343 53.8621 119.958 53.9791 119.565L57.637 120.018V120.072H58.9566C58.9566 120.072 58.5393 114.924 58.5393 112.848C58.5393 110.773 59.9455 103.324 59.9455 103.324C59.9455 103.324 60.5715 96.0434 59.9455 95.8348ZM43.7072 89.825C43.7072 90.0282 43.6882 90.2396 43.6747 90.4563L43.6015 90.5674L43.466 90.4536L43.3007 90.711L43.252 90.7354C42.8943 90.5512 42.7101 89.4972 42.4526 89.7248L42.4174 89.7546C42.3605 89.6895 42.3036 89.6706 42.244 89.7248L42.1898 89.7708C42.1898 89.6922 42.1898 89.611 42.1898 89.5297C42.6855 89.6572 43.1953 89.7219 43.7072 89.722C43.7099 89.7573 43.7072 89.7925 43.7072 89.825ZM55.8731 113.799H55.9517L55.8216 114.141C55.8379 114.027 55.8541 113.916 55.8731 113.799ZM42.5177 175.244L42.0191 175.119L42.2901 175.073L42.5421 175.238L42.5719 175.26L42.5177 175.244ZM47.6116 174.515C47.4464 174.428 47.2784 174.328 47.1158 174.225C47.17 174.255 47.384 174.366 47.6116 174.515Z" fill="url(#paint1_linear)"/>
<path d="M57.6724 108.681L54.3911 117.232H55.1878L52.1016 119.692L57.6724 120.386V108.681Z" fill="#F86D70"/>
<path opacity="0.1" d="M57.6724 108.681L54.3911 117.232L53.5647 117.01L52.1016 119.692L57.6724 120.386V108.681Z" fill="black"/>
<path d="M52.5269 114.151H57.6723L59.5609 98.6121H52.5269V114.151Z" fill="#F86D70"/>
<path opacity="0.1" d="M52.5269 114.151H57.6723L59.5609 98.6121H52.5269V114.151Z" fill="black"/>
<path d="M42.477 102.292L43.5879 102.105L46.1403 101.671C46.1403 101.671 53.8056 99.9424 55.388 99.8015C56.3466 99.6749 57.2814 99.4084 58.1626 99.0103C58.5772 98.8315 58.84 98.696 58.84 98.696L56.0789 93.6535L51.7951 90.4779C51.7951 90.4779 49.0856 89.9008 47.9394 88.3238C47.6837 87.9845 47.5171 87.5864 47.4551 87.1661C47.3931 86.7457 47.4376 86.3165 47.5845 85.9177C48.2836 83.7501 43.4091 87.9906 43.4091 87.9906C43.4091 87.9906 43.4551 89.0066 43.4091 90.3018C43.4091 90.5565 43.3847 90.822 43.3657 91.093C43.3657 91.2718 43.3413 91.4507 43.3224 91.6349C43.2031 92.9219 42.9593 94.2469 42.477 95.0381C41.2983 96.9727 42.477 102.292 42.477 102.292Z" fill="#FBBEBE"/>
<path opacity="0.1" d="M43.4092 90.4103H43.5176C43.7126 90.4103 43.8698 89.9957 44.0595 89.9767C45.585 89.8304 46.9777 89.5107 47.945 88.4296C47.6899 88.0904 47.5237 87.6928 47.4617 87.273C47.3997 86.8532 47.4438 86.4246 47.59 86.0262C48.2891 83.8585 43.4146 88.0963 43.4146 88.0963C43.4146 88.0963 43.4661 89.1151 43.4092 90.4103Z" fill="black"/>
<path d="M37.4751 84.265C37.4747 85.045 37.6281 85.8175 37.9265 86.5383C38.2248 87.2591 38.6623 87.9139 39.2139 88.4655C39.7655 89.0171 40.4204 89.4546 41.1411 89.7529C41.8619 90.0513 42.6344 90.2047 43.4144 90.2043C43.6095 90.2043 43.8019 90.2043 43.9943 90.1772C45.1387 90.065 46.2259 89.6229 47.124 88.9047C48.022 88.1865 48.6923 87.223 49.0534 86.1313C49.4145 85.0395 49.4509 83.8664 49.1581 82.7544C48.8654 81.6424 48.2562 80.6392 47.4044 79.8667C46.5526 79.0942 45.4949 78.5856 44.3596 78.4026C43.2243 78.2196 42.0604 78.3701 41.009 78.8358C39.9576 79.3015 39.064 80.0625 38.4367 81.0262C37.8094 81.9899 37.4753 83.1151 37.4751 84.265Z" fill="#FBBEBE"/>
<path d="M35.6518 75.2502C35.4567 75.7542 35.5163 76.3178 35.4377 76.8516C35.1478 78.7781 33.1888 79.9323 31.4167 80.7398C29.6447 81.5472 27.645 82.5037 27.0815 84.3652C26.4637 86.3784 27.813 88.397 28.7505 90.2856C30.5768 93.9651 30.8369 98.6581 28.4796 102.023C26.3851 105.004 22.7353 106.418 19.2996 107.659C20.9532 108.96 23.0083 109.644 25.1116 109.594C24.3231 111.889 21.5187 112.65 19.1289 113.073C20.3834 114.281 22.1799 114.72 23.9004 114.986C25.155 115.181 26.442 115.308 27.6938 115.056C28.9456 114.804 30.1324 114.124 30.7773 113.024C31.3192 112.084 31.5035 110.802 32.4816 110.328C32.9231 110.154 33.3988 110.085 33.8716 110.125L37.9359 110.168C39.2013 110.168 40.6997 110.071 41.3527 108.99C41.5936 108.528 41.7199 108.015 41.7212 107.494C41.8973 104.828 41.3852 102.01 42.4826 99.5766C42.8131 98.8423 40.6916 97.6799 40.9137 96.9023C41.6778 94.228 41.8702 92.1226 41.8621 89.3399C41.8621 87.1858 43.2629 85.3298 44.4199 83.5117C45.5769 81.6936 46.5442 79.3986 45.6311 77.4477C44.6015 75.2719 36.8684 72.1099 35.6518 75.2502Z" fill="#3F3D56"/>
<path d="M41.0625 174.463L42.0976 175.149L42.2574 175.255L42.2872 175.274L43.5146 176.086L46.3814 176.569L48.9012 176.395C48.9012 176.395 49.6274 174.878 48.4867 174.913C48.1213 174.894 47.7652 174.791 47.4462 174.612L47.2891 174.534C47.1238 174.447 46.9585 174.35 46.7959 174.247C46.4572 174.033 46.1375 173.8 45.8801 173.602C45.5008 173.309 45.2488 173.087 45.2488 173.087L41.0625 174.463Z" fill="#FBBEBE"/>
<path opacity="0.1" d="M42.1113 175.149L42.2712 175.254L42.301 175.273L43.5284 176.086L46.3951 176.569L48.915 176.395C48.915 176.395 49.6412 174.878 48.5005 174.913C48.1351 174.894 47.779 174.791 47.46 174.612C47.6605 174.769 47.8285 174.94 47.8448 175.084C47.8908 175.471 45.9806 176.168 45.9806 176.168L43.2873 175.455C43.2873 175.455 42.8294 175.325 42.2035 175.162L42.1438 175.146L42.1113 175.149Z" fill="black"/>
<path d="M37.5049 175.81C37.5049 175.81 39.7132 176.292 41.198 176.154C42.6828 176.016 45.2407 177.295 45.2407 177.295C45.2407 177.295 46.105 177.701 48.7631 177.875C51.4212 178.048 51.4212 176.699 51.4212 176.699C51.1177 174.864 46.9179 174.26 46.7878 174.233C46.8393 174.26 47.0588 174.371 47.281 174.52C47.579 174.715 47.9015 174.97 47.9258 175.176C47.9719 175.561 46.0617 176.26 46.0617 176.26L43.3684 175.55C43.3684 175.55 42.9105 175.417 42.2845 175.255H42.2249C41.2969 175.002 40.3539 174.807 39.4016 174.672C38.2419 174.547 37.6485 175.534 37.5266 175.756C37.5177 175.773 37.5105 175.791 37.5049 175.81Z" fill="#3F3D56"/>
<path d="M2.69824 127.084L3.87148 127.984C3.87148 127.984 4.21288 127.967 4.72228 127.951H4.88486C5.61373 127.924 6.61897 127.897 7.47248 127.897C8.02422 127.872 8.57706 127.903 9.1226 127.989C9.70787 128.195 10.7483 124.64 10.7483 124.64L9.57239 124.369L9.18221 124.277L8.91126 124.212L7.95478 123.987L5.05556 124.318L3.01797 125.629L2.69824 127.084Z" fill="#FBBEBE"/>
<path opacity="0.1" d="M2.69824 127.084L3.87148 127.984C3.87148 127.984 4.21288 127.967 4.72228 127.951C4.48853 127.861 4.2958 127.688 4.18037 127.466C3.42169 125.361 7.18527 124.461 7.18527 124.461L8.93836 124.385L9.27976 124.369H9.55071L9.16054 124.277L8.88958 124.212L7.93311 123.987L5.03388 124.318L2.9963 125.629L2.69824 127.084Z" fill="black"/>
<path d="M0.38427 128.035C1.09417 128.691 5.74377 128.035 5.93886 128.019C5.58599 128.059 5.22883 128.034 4.88484 127.946C4.71454 127.915 4.55318 127.847 4.41256 127.746C4.27193 127.646 4.15557 127.515 4.07198 127.363C3.3133 125.255 7.07688 124.358 7.07688 124.358L8.82996 124.282L9.16865 124.266L13.4308 124.082L13.6367 122.909C13.6367 122.909 12.2521 123.039 10.0791 123.212C8.85705 123.312 7.36951 123.424 5.76274 123.529C1.27301 123.827 0.205439 126.74 0.205439 126.74C0.205439 126.74 -0.339181 127.363 0.38427 128.035Z" fill="#3F3D56"/>
<path d="M52.5293 77.1766C52.5581 77.2409 52.5926 77.3026 52.6323 77.3608L53.6673 78.8782L56.3606 79.1492L56.3904 78.0816L56.8429 62.0193C56.8429 62.0193 58.7071 51.2461 55.1847 51.8666C51.6622 52.4871 53.8732 62.0193 53.8732 62.0193C53.8732 62.0193 53.4722 66.8532 53.1904 68.3055C52.9168 69.7091 51.6893 75.4154 52.5293 77.1766Z" fill="#FBBEBE"/>
<path d="M46.4844 117.072L47.2512 118.384L48.9663 121.318C48.9663 121.318 52.0769 122.459 52.8735 121.589C53.3097 121.115 53.7812 119.459 54.1118 118.067C54.3827 116.94 54.5643 115.989 54.5643 115.989L46.4844 117.072Z" fill="#FBBEBE"/>
<path opacity="0.1" d="M46.4844 117.072L47.2512 118.384C47.2993 118.342 47.3429 118.296 47.3812 118.245C48.2483 117.14 52.0661 118.01 54.1118 118.08C54.3827 116.953 54.5643 116.002 54.5643 116.002L46.4844 117.072Z" fill="black"/>
<path opacity="0.1" d="M7.47266 127.892C8.02439 127.867 8.57723 127.898 9.12278 127.984C9.70804 128.19 10.7485 124.635 10.7485 124.635L9.18239 124.266L13.4445 124.082L13.6504 122.909C13.6504 122.909 12.2659 123.039 10.0928 123.212C9.64378 123.471 9.24312 123.805 8.90872 124.201L8.84369 124.282C7.93599 125.396 7.60001 126.832 7.47266 127.892Z" fill="black"/>
<path opacity="0.1" d="M41.0625 174.463L42.2574 175.255C44.0403 174.932 45.6687 174.426 45.8611 173.629C45.862 173.616 45.862 173.604 45.8611 173.591C45.4818 173.298 45.2298 173.076 45.2298 173.076L41.0625 174.463Z" fill="black"/>
<path opacity="0.1" d="M37.5293 175.764C39.1037 175.686 40.6724 175.517 42.2277 175.26C41.2988 175.005 40.355 174.809 39.4016 174.672C38.2446 174.547 37.6512 175.534 37.5293 175.764Z" fill="black"/>
<path d="M7.60254 129.26C7.60254 130.124 9.98424 130.677 9.98424 130.677L17.2377 137.134C17.2377 137.134 21.7952 139.172 24.6944 142.106C27.5937 145.04 30.1515 142.521 30.1515 142.521C33.2241 141.762 42.0735 131.056 42.0735 131.056C42.0735 131.056 42.2795 143.282 42.694 144.179C43.1086 145.076 42.5558 147.528 42.3147 148.566C42.1625 149.431 42.1044 150.31 42.1413 151.188C42.1413 151.188 38.8275 163.861 39.1039 164.966C39.3802 166.072 37.3074 171.253 37.3074 171.253V175.569C37.3074 175.569 45.4225 175.257 45.8696 173.428C46.3167 171.599 43.8347 170.803 43.8347 170.803V170.353C45.4605 169.524 45.7667 163.828 45.7667 163.828C45.7667 163.828 48.1863 156.784 48.5304 155.61C48.8745 154.437 48.5304 152.673 48.5304 152.673L48.7715 151.156C48.7715 151.156 49.2891 150.118 49.2891 149.912C49.3567 149.386 49.5593 148.887 49.8771 148.463C50.2564 148.013 49.4625 146.943 49.4625 146.943L50.1534 145.146V143.179L51.7792 136.031C51.7792 136.031 53.4726 127.707 52.8847 124.979C52.2967 122.25 53.5756 120.871 53.5756 120.871C50.8037 122.323 49.4056 119.091 48.9477 117.701C48.8312 117.343 48.7743 117.105 48.7743 117.105C48.7743 117.105 44.9673 115.701 41.4232 116.037C40.7035 116.096 39.9941 116.246 39.3125 116.484C35.3755 117.901 34.755 123.77 34.755 123.77L31.2678 129.089C29.4714 133.82 26.7781 134.302 26.7781 134.302C26.7781 134.302 20.4594 130.057 20.2751 129.848C20.0909 129.639 17.6848 128.604 17.6848 128.604C17.4003 128.103 16.9651 127.705 16.4411 127.466C15.612 127.119 15.5443 125.84 15.5443 125.84C15.4413 122.836 13.6801 122.589 13.6801 122.589C7.56732 122.08 7.60254 128.398 7.60254 129.26Z" fill="#3F3D56"/>
<path d="M42.756 112.376H46.4844V100.809H42.756V112.376Z" fill="#F86D70"/>
<path opacity="0.1" d="M42.756 112.376H46.4844V100.809H42.756V112.376Z" fill="black"/>
<path opacity="0.1" d="M52.5268 77.1523C52.5262 77.1605 52.5262 77.1686 52.5268 77.1767C52.5557 77.241 52.5901 77.3027 52.6298 77.361L53.6648 78.8783L56.3581 79.1493L56.3879 78.0817C55.548 78.0167 53.635 77.7864 52.5268 77.1523Z" fill="black"/>
<path d="M52.6328 77.3611C52.6328 77.3611 52.7709 83.4359 51.2509 84.265C49.7308 85.0942 49.1401 89.4132 49.1401 89.4132C49.1401 89.4132 53.7464 92.4425 54.7733 93.7756C55.8002 95.1087 58.1575 98.2843 57.6725 99.043C57.1875 99.8016 58.8485 103.256 58.8485 103.256C58.8485 103.256 55.8084 109.472 56.4993 111.821C57.1902 114.17 57.258 120.383 57.258 120.383H58.5721C58.5721 120.383 58.1575 115.273 58.1575 113.2C58.1575 111.128 59.5367 103.739 59.5367 103.739C59.5367 103.739 60.1599 96.4879 59.5367 96.2819C58.9135 96.076 55.2556 93.1741 54.9792 91.8599C54.7029 90.5458 56.9139 78.3121 56.9139 78.3121C56.9139 78.3121 54.0824 78.1902 52.6328 77.3611Z" fill="#F86D70"/>
<path opacity="0.1" d="M42.686 99.7366C42.8121 100.582 43.1199 101.39 43.5883 102.105L46.1407 101.671C46.1407 101.671 53.8061 99.9425 55.3884 99.8016C56.347 99.675 57.2818 99.4085 58.163 99.0104C57.5557 96.8583 56.3702 94.9138 54.7354 93.3881L53.7627 92.4858C52.3293 91.155 50.668 90.0931 48.8584 89.3508C48.9722 89.4457 57.0142 96.3117 55.253 97.6583C53.4917 99.005 48.75 95.7264 48.75 95.7264L43.358 91.0931L43.1629 90.9251L42.8513 91.4101C43.0099 91.4753 43.1645 91.5495 43.3147 91.6323C45.1523 92.6409 46.5161 94.3359 47.108 96.3469C48.2162 100.073 42.686 99.7366 42.686 99.7366Z" fill="black"/>
<path d="M41.0273 117.002C41.0273 117.002 46.1376 119.833 47.3785 118.246C47.6495 117.896 48.2212 117.744 48.9338 117.704C48.8173 117.346 48.7604 117.108 48.7604 117.108C48.7604 117.108 44.9535 115.704 41.4094 116.04C41.1764 116.625 41.0273 117.002 41.0273 117.002Z" fill="#444053"/>
<path d="M43.3792 90.9304L48.9663 95.7372C48.9663 95.7372 53.6891 99.0266 55.4693 97.6691C57.2495 96.3116 49.072 89.3589 49.072 89.3589C50.8778 90.1034 52.5373 91.162 53.9736 92.4857L54.9463 93.388C57.5042 95.7589 58.0813 95.7589 58.168 99.2434C58.1897 100.102 57.897 101.335 57.6721 101.557C56.843 102.37 56.2632 108.274 56.3905 108.965C56.5179 109.656 54.8461 115.62 55.388 117.278C55.9299 118.936 48.6141 116.449 47.3758 118.04C46.1376 119.63 41.0273 116.796 41.0273 116.796C41.0273 116.796 43.8588 109.542 44.5498 109.06C45.2407 108.578 46.0698 104.847 44.5498 103.121C43.0297 101.395 42.8942 99.7365 42.8942 99.7365C42.8942 99.7365 48.4217 100.078 47.3135 96.3523C47.0018 95.2724 46.4609 94.2724 45.7277 93.4205C44.9945 92.5685 44.0863 91.8846 43.0649 91.4154L43.3792 90.9304Z" fill="#E8E8F0"/>
<path opacity="0.1" d="M50.8361 103.156C50.8361 103.156 48.6928 107.196 45.921 108.245C45.8316 108.277 45.7448 108.307 45.65 108.334C42.7562 109.215 51.0529 104.408 50.8361 103.156Z" fill="black"/>
<path d="M20.8631 67.4142C20.8631 67.4142 21.8981 70.0397 22.7273 70.9366C23.5564 71.8335 29.7017 80.8129 29.7017 80.8129L30.2219 81.8968L30.669 82.8207L34.606 82.4062L34.8769 80.8184L34.7252 80.6341C34.3296 80.1599 33.2512 78.8864 32.5277 78.331C31.6309 77.6428 29.8344 75.364 29.8344 75.364C29.8344 75.364 24.2419 69.5601 23.8273 67.9723C23.4128 66.3845 17.8175 56.8632 16.5766 58.5106C15.3356 60.158 20.8631 67.4142 20.8631 67.4142Z" fill="#FBBEBE"/>
<g opacity="0.1">
<path opacity="0.1" d="M32.2865 110.125C31.8139 110.084 31.3382 110.153 30.8965 110.326C29.921 110.8 29.7368 112.081 29.1949 113.022C28.5608 114.122 27.3524 114.802 26.1087 115.054C25.8615 115.102 25.6118 115.136 25.3608 115.157C26.1529 115.234 26.952 115.199 27.7344 115.054C28.9781 114.802 30.1866 114.122 30.8206 113.022C31.3625 112.081 31.5468 110.8 32.5222 110.326C32.7783 110.21 33.0544 110.146 33.3351 110.136L32.2865 110.125Z" fill="black"/>
<path opacity="0.1" d="M41.9108 89.3399C41.9108 87.1858 43.3117 85.3297 44.466 83.5116C45.6202 81.6935 46.5903 79.3985 45.6771 77.4476C44.8968 75.7813 40.193 73.5459 37.478 73.9875C40.1361 74.3316 43.4119 76.082 44.0514 77.4476C44.9645 79.3985 43.9945 81.6935 42.8402 83.5116C41.686 85.3297 40.2797 87.1858 40.2851 89.3399C40.2851 92.1199 40.0982 94.2171 39.3341 96.9022C39.1146 97.6745 41.2307 98.8423 40.9056 99.5739C39.8055 102.012 40.3203 104.825 40.1442 107.491C40.1406 108.012 40.0133 108.525 39.773 108.987C39.2311 109.878 38.1202 110.109 37.0391 110.157H37.9847C39.2473 110.157 40.7457 110.06 41.3987 108.979C41.6391 108.517 41.7663 108.004 41.7699 107.483C41.9461 104.817 41.4313 102.002 42.5313 99.5657C42.8619 98.8342 40.7403 97.6691 40.9598 96.8941C41.7239 94.2279 41.9163 92.1199 41.9108 89.3399Z" fill="black"/>
</g>
<path opacity="0.1" d="M30.2217 81.8913L30.6688 82.8153L34.6057 82.4007L34.8767 80.8129L34.725 80.6287C34.305 80.8346 31.1592 82.3492 30.2217 81.8913Z" fill="black"/>
<path opacity="0.1" d="M44.7586 92.2771C44.7586 92.2771 43.7913 90.7598 43.2386 91.1716C42.6858 91.5835 42.4718 89.9279 42.1548 90.2043C41.8378 90.4807 40.9138 91.2502 40.529 90.1745C40.2283 89.3183 36.9551 83.9019 35.6274 81.7234C35.286 81.1598 35.072 80.813 35.072 80.813C35.072 80.813 31.3436 82.6772 30.4468 82.0567V83.3681L31.2054 83.4385L35.2698 91.0253C35.2698 91.0253 36.5487 93.0602 36.462 93.7701C36.3753 94.48 38.1013 97.5879 38.3776 97.7938C38.654 97.9997 41.6291 101.454 41.6291 101.454C41.6291 101.454 43.1492 108.914 41.835 110.987C40.5209 113.059 38.2449 114.577 38.2449 114.577C38.2449 114.577 37.5594 116.579 37.6596 116.788C37.7599 116.996 36.863 117.893 37.2776 118.17C37.6921 118.446 38.2449 120.378 38.2449 120.378C38.2449 120.378 40.1795 117.27 41.2254 116.788C42.2713 116.305 43.6098 109.949 43.6098 109.949C43.6098 109.949 43.9918 106.204 44.0217 103.787C44.0515 101.37 43.9295 92.2771 44.7586 92.2771Z" fill="black"/>
<path d="M44.5497 92.2771C44.5497 92.2771 43.5851 90.7598 43.0323 91.1716C42.4796 91.5835 42.2628 89.9279 41.9485 90.2043C41.6342 90.4807 40.7102 91.2502 40.3228 90.1745C40.0193 89.3183 36.7462 83.9019 35.4212 81.7234L34.8657 80.813C34.8657 80.813 31.1374 82.6772 30.2378 82.0567V83.3681L30.9992 83.4385L35.0635 91.0253C35.0635 91.0253 36.3451 93.0602 36.2557 93.7701C36.1663 94.48 37.8815 97.5879 38.1714 97.7938C38.4613 97.9997 41.4228 101.454 41.4228 101.454C41.4228 101.454 42.9429 108.914 41.6315 110.987C40.9387 112.028 40.096 112.961 39.1306 113.756C38.3196 114.425 37.7489 115.34 37.5048 116.362C37.4578 116.502 37.4412 116.65 37.4561 116.796C37.5563 117.002 36.6594 117.901 37.074 118.178C37.4886 118.454 38.0467 120.394 38.0467 120.394C38.0467 120.394 39.9814 117.286 41.0273 116.804C42.0731 116.322 43.4144 109.965 43.4144 109.965C43.4144 109.965 43.7937 106.22 43.8262 103.804C43.8587 101.387 43.7368 92.2771 44.5497 92.2771Z" fill="#F86D70"/>
<path opacity="0.1" d="M35.0879 123.703C35.0879 123.703 37.9898 124.245 39.1522 125.082C40.3146 125.919 34.7329 123.77 34.7329 123.77L35.0879 123.703Z" fill="black"/>
<path opacity="0.1" d="M42.0654 131.056C42.0654 131.056 45.092 133.579 44.5501 135.857C44.0082 138.136 42.6101 143.87 42.6101 143.87L42.0654 131.056Z" fill="black"/>
<path opacity="0.1" d="M15.5956 126.206C15.5956 126.206 11.3307 126.672 11.6071 127.225C11.8835 127.778 15.5956 126.715 15.5956 126.715V126.206Z" fill="black"/>
<path opacity="0.1" d="M48.3431 147.184C48.3431 147.184 48.6141 147.528 47.0317 147.184C45.4493 146.839 46.6172 145.777 46.6172 145.777L48.3431 147.184Z" fill="black"/>
<path opacity="0.1" d="M47.8015 151.95C47.8015 151.95 45.6338 152.294 44.4714 151.95C43.309 151.605 47.8015 151.95 47.8015 151.95Z" fill="black"/>
<path opacity="0.1" d="M43.3412 170.597C43.3412 170.597 42.9619 170.182 41.0625 170.941C39.1631 171.7 38.4044 171.735 37.8517 171.483C37.2989 171.231 43.3412 170.597 43.3412 170.597Z" fill="black"/>
<path opacity="0.1" d="M45.4496 125.618L42.7563 129.365C42.7563 129.365 44.206 126.084 45.4496 125.618Z" fill="black"/>
<path opacity="0.1" d="M40.2147 91.1716C40.2147 91.1716 40.0982 92.4153 38.3613 92.9003C36.6245 93.3853 36.2939 93.7782 36.2939 93.7782" fill="black"/>
<path opacity="0.1" d="M35.7005 82.157C35.7005 82.157 33.4082 83.7827 31.0156 83.4386L35.7005 82.157Z" fill="black"/>
<path opacity="0.1" d="M37.4453 116.967C37.4453 116.967 38.1146 117.387 39.7213 115.55L37.4453 116.967Z" fill="black"/>
<path opacity="0.1" d="M54.1337 97.4876C54.1988 97.1516 53.9657 96.84 53.7463 96.5772L53.2965 96.0353C53.2086 95.9244 53.1096 95.8227 53.0011 95.7318C52.7302 95.5232 52.3834 95.4609 52.1016 95.2739" fill="black"/>
<path fill-rule="evenodd" clip-rule="evenodd" d="M135.103 100.419L102.046 128.306L84.6177 110.735L90.389 105.011L102.536 117.258L129.861 94.2056L135.103 100.419Z" fill="#46983B"/>
<path fill-rule="evenodd" clip-rule="evenodd" d="M102.194 160.109C132.871 160.109 157.74 135.24 157.74 104.563C157.74 86.9086 149.504 71.1781 136.665 61.0039C152.56 70.7767 163.159 88.3286 163.159 108.356C163.159 139.033 138.29 163.902 107.613 163.902C94.5902 163.902 82.6139 159.42 73.1426 151.915C81.5948 157.112 91.5445 160.109 102.194 160.109Z" fill="#47983C"/>
<path fill-rule="evenodd" clip-rule="evenodd" d="M134.29 97.1672L101.233 125.055L83.8052 107.483L89.5765 101.759L101.724 114.006L129.049 90.9541L134.29 97.1672Z" fill="white"/>
<defs>
<linearGradient id="paint0_linear" x1="173.269" y1="142.814" x2="173.269" y2="33.8082" gradientUnits="userSpaceOnUse">
<stop stop-color="#808080" stop-opacity="0.25"/>
<stop offset="0.54" stop-color="#808080" stop-opacity="0.12"/>
<stop offset="1" stop-color="#808080" stop-opacity="0.1"/>
</linearGradient>
<linearGradient id="paint1_linear" x1="10757.2" y1="67900.4" x2="24140.1" y2="67900.4" gradientUnits="userSpaceOnUse">
<stop stop-color="#808080" stop-opacity="0.25"/>
<stop offset="0.54" stop-color="#808080" stop-opacity="0.12"/>
<stop offset="1" stop-color="#808080" stop-opacity="0.1"/>
</linearGradient>
</defs>
</svg>
