<?xml version="1.0" encoding="utf-8"?>
<svg version="1.1" id="Final" x="0px" y="0px" width="151.005px" height="174.319px" viewBox="0 0 151 174.31900024414062" enable-background="new 0 0 648.005 174.319" xmlns="http://www.w3.org/2000/svg">
  <g>
    <g>
      <g>
        <g>
          <polyline fill="#2C839A" points="75.48,58.392 75.48,0 -0.005,43.58 50.572,72.776 75.48,58.392 &#9;&#9;&#9;&#9;"/>
          <polyline fill="#40B299" points="50.566,72.779 50.572,72.776 -0.005,43.58 -0.005,87.16 50.566,87.16 50.566,72.779 &#9;&#9;&#9;&#9;"/>
          <polyline fill="#1FB0E6" points="100.391,72.779 100.391,87.16 150.961,87.16 150.961,43.58 100.391,72.776 100.391,72.779 &#9;&#9;&#9;&#9;&#10;&#9;&#9;&#9;&#9;&#9;"/>
          <polyline fill="#6CCEF5" points="100.391,72.776 150.961,43.58 75.48,0 75.48,58.392 100.391,72.776 &#9;&#9;&#9;&#9;"/>
          <polygon fill="#BBD631" points="50.566,87.16 -0.005,87.16 -0.005,130.737 50.566,101.538 &#9;&#9;&#9;&#9;"/>
          <polyline fill="#49B749" points="50.566,101.541 50.566,101.538 -0.005,130.737 75.48,174.319 75.48,115.924 50.566,101.541 &#10;&#9;&#9;&#9;&#9;&#9;&#9;&#9;&#9;&#9;"/>
          <polyline fill="#1993D2" points="100.391,87.16 100.391,101.541 75.48,115.924 75.48,174.319 150.961,130.737 150.961,87.16 &#10;&#9;&#9;&#9;&#9;&#9;100.391,87.16 &#9;&#9;&#9;&#9;"/>
          <polyline fill="#FFFFFF" points="75.48,87.16 75.48,87.157 75.476,87.16 75.48,87.16 &#9;&#9;&#9;&#9;"/>
          <polyline fill="#C5C7C9" points="75.48,58.392 75.48,58.392 50.572,72.776 75.476,87.16 75.48,87.157 75.48,58.392 &#9;&#9;&#9;&#9;"/>
          <polyline fill="#F0F1F1" points="75.48,58.392 75.48,87.157 100.391,72.776 75.48,58.392 &#9;&#9;&#9;&#9;"/>
          <polyline fill="#DCDDDE" points="50.572,72.776 50.572,72.776 50.566,72.779 50.566,87.16 75.476,87.16 50.572,72.776 &#9;&#9;&#9;&#9;"/>
          <polyline fill="#FFFFFF" points="75.48,87.16 75.48,87.16 75.476,87.16 75.48,87.16 &#9;&#9;&#9;&#9;"/>
          <polyline fill="#DEDFE1" points="100.391,72.776 100.391,72.776 75.48,87.157 75.48,87.16 100.391,87.16 100.391,72.779 &#10;&#9;&#9;&#9;&#9;&#9;100.391,72.776 &#9;&#9;&#9;&#9;"/>
          <polyline fill="#CBCDCF" points="100.391,87.16 75.48,87.16 75.48,87.16 75.48,115.924 100.391,101.541 100.391,87.16 &#9;&#9;&#9;&#9;"/>
          <polyline fill="#EBECED" points="75.476,87.16 50.566,87.16 50.566,101.538 75.476,87.16 &#9;&#9;&#9;&#9;"/>
          <polyline fill="#D9DADC" points="75.476,87.16 75.476,87.16 50.566,101.538 50.566,101.541 75.48,115.924 75.48,87.16 &#10;&#9;&#9;&#9;&#9;&#9;75.476,87.16 &#9;&#9;&#9;&#9;"/>
        </g>
      </g>
    </g>
  </g>
</svg>