<?xml version="1.0" encoding="utf-8"?>
<!-- Generator: Adobe Illustrator 16.0.4, SVG Export Plug-In . SVG Version: 6.00 Build 0)  -->
<!DOCTYPE svg PUBLIC "-//W3C//DTD SVG 1.1//EN" "http://www.w3.org/Graphics/SVG/1.1/DTD/svg11.dtd">
<svg version="1.1" id="Final" xmlns="http://www.w3.org/2000/svg" xmlns:xlink="http://www.w3.org/1999/xlink" x="0px" y="0px"
	 width="648.005px" height="174.319px" viewBox="0 0 648.005 174.319" enable-background="new 0 0 648.005 174.319"
	 xml:space="preserve">
<g>
	<g>
		<path fill="#123239" d="M183.64,96.346v34.347h-7.77v-87.11h31.963c9.108,0,15.897,2.068,20.371,6.204
			c4.467,4.136,6.703,10.674,6.703,19.615c0,13.958-5.597,22.438-16.794,25.447l17.923,35.845h-8.648l-17.173-34.347H183.64z
			 M226.886,69.526c0-6.52-1.547-11.322-4.638-14.413c-3.09-3.09-7.896-4.637-14.415-4.637H183.64v38.978h24.194
			C220.534,89.455,226.886,82.815,226.886,69.526z"/>
		<path fill="#123239" d="M290.606,86.694v33.596c0.334,3.093,4.255,4.452,8.146,4.385l-0.376,6.018
			c-5.971,0.602-11.152-0.544-14.164-3.888c-7.855,3.43-15.713,5.14-23.562,5.14c-5.602,0-9.863-1.607-12.787-4.825
			c-2.925-3.219-4.389-7.814-4.389-13.786c0-5.974,1.485-10.402,4.453-13.288c2.967-2.881,7.623-4.653,13.978-5.325l21.307-2.134
			v-5.892c0-4.674-1.025-8.036-3.075-10.085c-2.044-2.047-4.782-3.072-8.209-3.072c-5.349,0-12.282,0.502-20.807,1.503l-3.883,0.379
			l-0.381-6.019c9.197-1.757,17.238-2.633,24.129-2.633c6.896,0,11.885,1.629,14.981,4.887
			C289.059,74.917,290.606,79.929,290.606,86.694z M251.248,112.897c0,8.435,3.466,12.656,10.402,12.656
			c3.012,0,6.311-0.355,9.903-1.066c3.592-0.709,6.434-1.44,8.523-2.191l3.137-1.129V98.482l-20.434,2.128
			c-4.094,0.335-7.04,1.509-8.836,3.511C252.147,106.125,251.248,109.048,251.248,112.897z"/>
		<path fill="#123239" d="M305.448,52.358v-8.776h7.393v8.776H305.448z M305.448,130.693V68.021h7.393v62.672H305.448z"/>
		<path fill="#123239" d="M325.529,43.583h32.59c8.773,0,15.335,1.801,19.68,5.404c4.345,3.605,6.515,9.346,6.515,17.23
			c0,5.171-0.815,9.244-2.441,12.211c-1.631,2.967-4.198,5.424-7.707,7.377c8.188,3.218,12.282,9.96,12.282,20.215
			c0,16.447-9.108,24.672-27.324,24.672h-33.594V43.583z M357.366,55.791h-17.924v24.927h18.426c8.188,0,12.287-4.285,12.287-12.85
			C370.155,59.817,365.889,55.791,357.366,55.791z M358.119,92.67h-18.677v25.814h18.928c4.591,0,8.041-0.976,10.342-2.927
			c2.296-1.945,3.445-5.294,3.445-10.049c0-4.745-1.338-8.07-4.01-9.977C365.471,93.623,362.13,92.67,358.119,92.67z"/>
		<path fill="#123239" d="M396.815,130.693v-87.11h13.662v87.11H396.815z"/>
		<path fill="#123239" d="M427.321,74.789c4.304-5.43,11.472-8.146,21.5-8.146c10.022,0,17.186,2.716,21.494,8.146
			c4.304,5.435,6.458,13.583,6.458,24.443c0,10.865-2.092,19.049-6.27,24.569c-4.178,5.514-11.409,8.27-21.683,8.27
			c-10.284,0-17.511-2.756-21.688-8.27c-4.177-5.521-6.269-13.704-6.269-24.569C420.864,88.373,423.019,80.224,427.321,74.789z
			 M437.538,115.524c1.919,3.342,5.684,5.016,11.283,5.016c5.594,0,9.354-1.674,11.277-5.016c1.919-3.336,2.881-8.81,2.881-16.417
			c0-7.6-1.02-12.993-3.069-16.172c-2.044-3.171-5.746-4.761-11.089-4.761c-5.349,0-9.051,1.59-11.101,4.761
			c-2.044,3.179-3.068,8.572-3.068,16.172C434.652,106.714,435.614,112.188,437.538,115.524z"/>
		<path fill="#123239" d="M512.27,66.643c4.429,0,9.651,0.586,15.664,1.754l3.138,0.627l-0.502,10.779
			c-6.599-0.667-11.487-1.001-14.666-1.001c-6.353,0-10.614,1.422-12.778,4.261c-2.175,2.845-3.263,8.19-3.263,16.044
			c0,7.853,1.046,13.285,3.132,16.3c2.091,3.002,6.441,5.632,13.034,5.381c8.722-0.332,14.666-0.999,14.666-0.999l0.377,10.904
			c-8.439,1.498-14.786,1.378-19.048,1.378c-9.526,0-16.234-2.57-20.119-7.71s-5.829-13.556-5.829-25.254
			c0-11.696,2.049-20.033,6.143-25.005C496.312,69.129,502.994,66.643,512.27,66.643z"/>
		<path fill="#123239" d="M556.273,130.693h-13.662v-87.11h13.662v49.635l7.77-0.751l14.791-24.446h15.293l-18.049,29.334
			l19.053,33.338h-15.419l-15.293-26.446l-8.146,0.876V130.693z"/>
		<path fill="#123239" d="M645.872,80.933c-9.861-1.336-17.004-2.005-21.432-2.005c-4.429,0-7.503,0.523-9.213,1.571
			c-1.715,1.041-2.567,2.688-2.567,4.943c0,2.262,0.941,3.849,2.818,4.764c1.877,0.923,6.311,1.986,13.285,3.199
			c6.976,1.216,11.932,3.114,14.854,5.702c2.923,2.593,4.387,7.191,4.387,13.79c0,6.6-2.112,11.448-6.332,14.538
			c-4.214,3.093-10.384,4.636-18.482,4.636c-5.098,0-8.841,0.264-23.196-1.367l0,0l0.508-11.587
			c10.03,1.336,17.978,1.632,22.464,1.255c4.413-0.371,6.802-1.004,8.685-2.091c1.882-1.08,2.818-2.874,2.818-5.384
			c0-2.507-0.899-4.24-2.693-5.205c-1.804-0.96-6.102-2-12.914-3.129c-6.808-1.135-11.801-2.902-14.975-5.331
			c-3.182-2.421-4.766-6.849-4.766-13.285c0-6.434,2.189-11.239,6.585-14.415c4.382-3.177,10.003-4.764,16.852-4.764
			c5.349,0,11.911,0.672,19.68,2.005l3.885,0.753L645.872,80.933z"/>
	</g>
	<g>
		<g>
			<g>
				<polyline fill="#2C839A" points="75.48,58.392 75.48,0 -0.005,43.58 50.572,72.776 75.48,58.392 				"/>
				<polyline fill="#40B299" points="50.566,72.779 50.572,72.776 -0.005,43.58 -0.005,87.16 50.566,87.16 50.566,72.779 				"/>
				<polyline fill="#1FB0E6" points="100.391,72.779 100.391,87.16 150.961,87.16 150.961,43.58 100.391,72.776 100.391,72.779 				
					"/>
				<polyline fill="#6CCEF5" points="100.391,72.776 150.961,43.58 75.48,0 75.48,58.392 100.391,72.776 				"/>
				<polygon fill="#BBD631" points="50.566,87.16 -0.005,87.16 -0.005,130.737 50.566,101.538 				"/>
				<polyline fill="#49B749" points="50.566,101.541 50.566,101.538 -0.005,130.737 75.48,174.319 75.48,115.924 50.566,101.541 
									"/>
				<polyline fill="#1993D2" points="100.391,87.16 100.391,101.541 75.48,115.924 75.48,174.319 150.961,130.737 150.961,87.16 
					100.391,87.16 				"/>
				<polyline fill="#FFFFFF" points="75.48,87.16 75.48,87.157 75.476,87.16 75.48,87.16 				"/>
				<polyline fill="#C5C7C9" points="75.48,58.392 75.48,58.392 50.572,72.776 75.476,87.16 75.48,87.157 75.48,58.392 				"/>
				<polyline fill="#F0F1F1" points="75.48,58.392 75.48,87.157 100.391,72.776 75.48,58.392 				"/>
				<polyline fill="#DCDDDE" points="50.572,72.776 50.572,72.776 50.566,72.779 50.566,87.16 75.476,87.16 50.572,72.776 				"/>
				<polyline fill="#FFFFFF" points="75.48,87.16 75.48,87.16 75.476,87.16 75.48,87.16 				"/>
				<polyline fill="#DEDFE1" points="100.391,72.776 100.391,72.776 75.48,87.157 75.48,87.16 100.391,87.16 100.391,72.779 
					100.391,72.776 				"/>
				<polyline fill="#CBCDCF" points="100.391,87.16 75.48,87.16 75.48,87.16 75.48,115.924 100.391,101.541 100.391,87.16 				"/>
				<polyline fill="#EBECED" points="75.476,87.16 50.566,87.16 50.566,101.538 75.476,87.16 				"/>
				<polyline fill="#D9DADC" points="75.476,87.16 75.476,87.16 50.566,101.538 50.566,101.541 75.48,115.924 75.48,87.16 
					75.476,87.16 				"/>
			</g>
		</g>
	</g>
</g>
</svg>
